<?xml version="1.0" encoding="utf-8"?>
<svg width="1980px" height="1190px" viewBox="0 0 198 119" fill="none" xmlns="http://www.w3.org/2000/svg">
  <rect width="198" height="119" fill="url(#paint0_linear)"/>
  <path d="M47 67C60.8071 67 72 55.8071 72 42C72 28.1929 60.8071 17 47 17C33.1929 17 22 28.1929 22 42C22 55.8071 33.1929 67 47 67Z" fill="url(#paint1_linear)"/>
  <path d="M126 119H3.45793C3.3045 119.002 3.15121 118.989 3 118.963L60.9568 17.0902C61.3105 16.4558 61.8238 15.928 62.4443 15.5607C63.0649 15.1935 63.7703 15 64.4887 15C65.207 15 65.9125 15.1935 66.533 15.5607C67.1535 15.928 67.6668 16.4558 68.0206 17.0902L106.917 85.4548L108.78 88.726L126 119Z" fill="url(#paint2_linear)"/>
  <path d="M126 119H3.45793C3.3045 119.002 3.15121 118.989 3 118.963L60.9568 17.0902C61.3105 16.4558 61.8238 15.928 62.4443 15.5607C63.0649 15.1935 63.7703 15 64.4887 15C65.207 15 65.9125 15.1935 66.533 15.5607C67.1535 15.928 67.6668 16.4558 68.0206 17.0902L106.917 85.4548L108.78 88.726L126 119Z" fill="black" fill-opacity="0.2"/>
  <path d="M195 119H88L108.735 88.7164L110.227 86.5348L137.246 47.0694C139.017 44.4829 143.278 44.3218 145.361 46.5816C145.501 46.7357 145.631 46.8987 145.75 47.0694L195 119Z" fill="url(#paint3_linear)"/>
  <path d="M195 119H88L108.735 88.7164L110.227 86.5348L137.246 47.0694C139.017 44.4829 143.278 44.3218 145.361 46.5816C145.501 46.7357 145.631 46.8987 145.75 47.0694L195 119Z" fill="black" fill-opacity="0.2"/>
  <path d="M29.4931 108H31.4131L36.0211 96.992H34.2131L30.4691 106.4L26.7411 96.992H24.9171L29.4931 108ZM37.2848 99.52V108H38.7888V99.52H37.2848ZM38.0528 98.336C38.7088 98.336 39.1248 97.984 39.1248 97.456C39.1248 96.912 38.7088 96.56 38.0528 96.56C37.3968 96.56 36.9648 96.912 36.9648 97.456C36.9648 97.984 37.3968 98.336 38.0528 98.336ZM44.8729 103.408L43.8329 103.104C42.7449 102.784 42.0409 102.528 42.0409 101.76C42.0409 101.04 42.7609 100.688 43.6569 100.688C44.8569 100.688 46.1529 101.168 46.7609 101.632V100.128C46.1689 99.728 44.9529 99.344 43.7369 99.344C41.7689 99.344 40.5849 100.4 40.5849 101.808C40.5849 103.28 41.6569 103.904 42.9209 104.224L43.9929 104.544C45.0809 104.832 45.7209 105.072 45.7209 105.808C45.7209 106.608 45.0969 106.896 44.0889 106.896C42.7769 106.896 41.4489 106.384 40.6649 105.888V107.36C41.3049 107.76 42.6649 108.224 44.0249 108.224C45.9289 108.224 47.1449 107.376 47.1449 105.776C47.1449 104.464 46.2329 103.792 44.8729 103.408ZM56.3033 108V99.52H54.7993V105.936C54.1913 106.304 53.2473 106.72 52.2553 106.72C51.0073 106.72 50.2553 106.016 50.2553 104.624V99.52H48.7513V104.96C48.7513 107.04 49.8233 108.16 51.6793 108.16C53.0873 108.16 54.1753 107.52 54.8953 106.928V108H56.3033ZM61.0297 106.992C60.1817 106.992 59.5097 106.656 59.5097 105.824C59.5097 104.944 60.3737 104.352 62.0537 104.352C62.5977 104.352 63.1737 104.448 63.5577 104.56V106C62.9017 106.544 61.9897 106.992 61.0297 106.992ZM63.5577 102.848V103.616C63.1737 103.472 62.5177 103.312 61.6857 103.312C59.5097 103.312 58.1017 104.4 58.1017 105.888C58.1017 107.296 59.0777 108.16 60.7897 108.16C62.0537 108.16 63.0457 107.536 63.6537 106.88V108H65.0617V102.832C65.0617 100.304 63.4617 99.36 61.6217 99.36C60.0537 99.36 58.7577 100.096 58.1977 100.672V102.224C58.9177 101.488 60.1017 100.848 61.4297 100.848C62.5657 100.848 63.5577 101.408 63.5577 102.848ZM67.2216 96.992V108H68.7256V96.752L67.2216 96.992ZM80.9099 100C80.2699 99.568 79.3579 99.344 78.3819 99.344C75.7899 99.344 73.8059 101.104 73.8059 103.76C73.8059 106.336 75.7739 108.16 78.3659 108.16C79.3579 108.16 80.2699 107.92 80.9099 107.488V105.984C80.2699 106.448 79.3739 106.736 78.4139 106.736C76.6219 106.736 75.3099 105.552 75.3099 103.76C75.3099 101.92 76.6219 100.768 78.4299 100.768C79.3739 100.768 80.2699 101.04 80.9099 101.504V100ZM86.6747 108.16C84.1307 108.16 82.2747 106.256 82.2747 103.76C82.2747 101.232 84.1307 99.36 86.6747 99.36C89.2187 99.36 91.0747 101.232 91.0747 103.76C91.0747 106.256 89.2187 108.16 86.6747 108.16ZM86.6747 106.752C88.3547 106.752 89.5867 105.488 89.5867 103.76C89.5867 102.016 88.3547 100.768 86.6747 100.768C85.0107 100.768 83.7627 102.016 83.7627 103.76C83.7627 105.472 85.0107 106.752 86.6747 106.752ZM96.7971 100.8C97.9331 100.8 98.6371 101.488 98.6371 102.832V108H100.141V102.416C100.141 102.128 100.125 101.84 100.077 101.584C100.685 101.216 101.581 100.8 102.525 100.8C103.677 100.8 104.381 101.488 104.381 102.832V108H105.869V102.496C105.869 100.464 104.861 99.36 103.101 99.36C101.629 99.36 100.541 100.08 99.8051 100.736C99.3731 99.84 98.5411 99.36 97.3571 99.36C96.0291 99.36 95.0051 100 94.3171 100.592V99.52H92.9091V108H94.4131V101.584C94.9891 101.232 95.8691 100.8 96.7971 100.8ZM108.082 99.52V108H109.586V99.52H108.082ZM108.85 98.336C109.506 98.336 109.922 97.984 109.922 97.456C109.922 96.912 109.506 96.56 108.85 96.56C108.194 96.56 107.762 96.912 107.762 97.456C107.762 97.984 108.194 98.336 108.85 98.336ZM115.926 100.8C117.174 100.8 117.926 101.504 117.926 102.896V108H119.43V102.56C119.43 100.48 118.358 99.36 116.486 99.36C115.094 99.36 114.006 100 113.286 100.592V99.52H111.878V108H113.382V101.568C113.974 101.216 114.934 100.8 115.926 100.8ZM125.196 106.032C123.772 106.032 122.748 105.216 122.748 103.552C122.748 101.696 123.98 100.704 125.692 100.704C126.412 100.704 126.956 100.848 127.42 101.024V105.296C126.924 105.648 126.124 106.032 125.196 106.032ZM128.924 106.672V100.064C128.14 99.744 127.1 99.36 125.708 99.36C123.276 99.36 121.212 100.832 121.212 103.728C121.212 106.032 122.7 107.392 124.828 107.392C125.98 107.392 126.86 106.928 127.42 106.496V106.864C127.42 108.416 126.508 109.28 124.764 109.28C123.5 109.28 122.444 108.8 121.676 108.272V109.808C122.38 110.24 123.532 110.688 124.908 110.688C127.116 110.688 128.924 109.536 128.924 106.672ZM138.185 103.408L137.145 103.104C136.057 102.784 135.353 102.528 135.353 101.76C135.353 101.04 136.073 100.688 136.969 100.688C138.169 100.688 139.465 101.168 140.073 101.632V100.128C139.481 99.728 138.265 99.344 137.049 99.344C135.081 99.344 133.897 100.4 133.897 101.808C133.897 103.28 134.969 103.904 136.233 104.224L137.305 104.544C138.393 104.832 139.033 105.072 139.033 105.808C139.033 106.608 138.409 106.896 137.401 106.896C136.089 106.896 134.761 106.384 133.977 105.888V107.36C134.617 107.76 135.977 108.224 137.337 108.224C139.241 108.224 140.457 107.376 140.457 105.776C140.457 104.464 139.545 103.792 138.185 103.408ZM146.128 108.16C143.584 108.16 141.728 106.256 141.728 103.76C141.728 101.232 143.584 99.36 146.128 99.36C148.672 99.36 150.528 101.232 150.528 103.76C150.528 106.256 148.672 108.16 146.128 108.16ZM146.128 106.752C147.808 106.752 149.04 105.488 149.04 103.76C149.04 102.016 147.808 100.768 146.128 100.768C144.464 100.768 143.216 102.016 143.216 103.76C143.216 105.472 144.464 106.752 146.128 106.752ZM156.362 108.16C153.818 108.16 151.962 106.256 151.962 103.76C151.962 101.232 153.818 99.36 156.362 99.36C158.906 99.36 160.762 101.232 160.762 103.76C160.762 106.256 158.906 108.16 156.362 108.16ZM156.362 106.752C158.042 106.752 159.274 105.488 159.274 103.76C159.274 102.016 158.042 100.768 156.362 100.768C154.698 100.768 153.45 102.016 153.45 103.76C153.45 105.472 154.698 106.752 156.362 106.752ZM166.645 100.8C167.893 100.8 168.645 101.504 168.645 102.896V108H170.149V102.56C170.149 100.48 169.077 99.36 167.205 99.36C165.813 99.36 164.725 100 164.005 100.592V99.52H162.597V108H164.101V101.568C164.693 101.216 165.653 100.8 166.645 100.8Z" fill="#FFFAFF"/>
  <defs>
    <linearGradient id="paint0_linear" x1="99" y1="0" x2="99" y2="119" gradientUnits="userSpaceOnUse">
      <stop stop-color="#C4FAF8"/>
      <stop offset="1" stop-color="#FFCCF9"/>
    </linearGradient>
    <linearGradient id="paint1_linear" x1="47" y1="17" x2="47" y2="67" gradientUnits="userSpaceOnUse">
      <stop stop-color="#E580FF"/>
      <stop offset="1" stop-color="#B780FF"/>
    </linearGradient>
    <linearGradient id="paint2_linear" x1="19.4854" y1="39.6281" x2="21.1837" y2="136.612" gradientUnits="userSpaceOnUse">
      <stop stop-color="#390048"/>
      <stop offset="1"/>
    </linearGradient>
    <linearGradient id="paint3_linear" x1="102.341" y1="62.5238" x2="103.329" y2="131.538" gradientUnits="userSpaceOnUse">
      <stop stop-color="#390048"/>
      <stop offset="1"/>
    </linearGradient>
  </defs>
</svg>