<svg width="1170" height="658" viewBox="0 0 1170 658" fill="none" xmlns="http://www.w3.org/2000/svg">
<rect width="1170" height="658" fill="#FFFAFF"/>
<path d="M373.916 574H379.916L394.316 539.6H388.666L376.966 569L365.316 539.6H359.616L373.916 574ZM398.265 547.5V574H402.965V547.5H398.265ZM400.665 543.8C402.715 543.8 404.015 542.7 404.015 541.05C404.015 539.35 402.715 538.25 400.665 538.25C398.615 538.25 397.265 539.35 397.265 541.05C397.265 542.7 398.615 543.8 400.665 543.8ZM421.978 559.65L418.728 558.7C415.328 557.7 413.128 556.9 413.128 554.5C413.128 552.25 415.378 551.15 418.178 551.15C421.928 551.15 425.978 552.65 427.878 554.1V549.4C426.028 548.15 422.228 546.95 418.428 546.95C412.278 546.95 408.578 550.25 408.578 554.65C408.578 559.25 411.928 561.2 415.878 562.2L419.228 563.2C422.628 564.1 424.628 564.85 424.628 567.15C424.628 569.65 422.678 570.55 419.528 570.55C415.428 570.55 411.278 568.95 408.828 567.4V572C410.828 573.25 415.078 574.7 419.328 574.7C425.278 574.7 429.078 572.05 429.078 567.05C429.078 562.95 426.228 560.85 421.978 559.65ZM457.698 574V547.5H452.998V567.55C451.098 568.7 448.148 570 445.048 570C441.148 570 438.798 567.8 438.798 563.45V547.5H434.098V564.5C434.098 571 437.448 574.5 443.248 574.5C447.648 574.5 451.048 572.5 453.298 570.65V574H457.698ZM472.468 570.85C469.818 570.85 467.718 569.8 467.718 567.2C467.718 564.45 470.418 562.6 475.668 562.6C477.368 562.6 479.168 562.9 480.368 563.25V567.75C478.318 569.45 475.468 570.85 472.468 570.85ZM480.368 557.9V560.3C479.168 559.85 477.118 559.35 474.518 559.35C467.718 559.35 463.318 562.75 463.318 567.4C463.318 571.8 466.368 574.5 471.718 574.5C475.668 574.5 478.768 572.55 480.668 570.5V574H485.068V557.85C485.068 549.95 480.068 547 474.318 547C469.418 547 465.368 549.3 463.618 551.1V555.95C465.868 553.65 469.568 551.65 473.718 551.65C477.268 551.65 480.368 553.4 480.368 557.9ZM491.817 539.6V574H496.517V538.85L491.817 539.6ZM534.594 549C532.594 547.65 529.744 546.95 526.694 546.95C518.594 546.95 512.394 552.45 512.394 560.75C512.394 568.8 518.544 574.5 526.644 574.5C529.744 574.5 532.594 573.75 534.594 572.4V567.7C532.594 569.15 529.794 570.05 526.794 570.05C521.194 570.05 517.094 566.35 517.094 560.75C517.094 555 521.194 551.4 526.844 551.4C529.794 551.4 532.594 552.25 534.594 553.7V549ZM552.608 574.5C544.658 574.5 538.858 568.55 538.858 560.75C538.858 552.85 544.658 547 552.608 547C560.558 547 566.358 552.85 566.358 560.75C566.358 568.55 560.558 574.5 552.608 574.5ZM552.608 570.1C557.858 570.1 561.708 566.15 561.708 560.75C561.708 555.3 557.858 551.4 552.608 551.4C547.408 551.4 543.508 555.3 543.508 560.75C543.508 566.1 547.408 570.1 552.608 570.1ZM584.241 551.5C587.791 551.5 589.991 553.65 589.991 557.85V574H594.691V556.55C594.691 555.65 594.641 554.75 594.491 553.95C596.391 552.8 599.191 551.5 602.141 551.5C605.741 551.5 607.941 553.65 607.941 557.85V574H612.591V556.8C612.591 550.45 609.441 547 603.941 547C599.341 547 595.941 549.25 593.641 551.3C592.291 548.5 589.691 547 585.991 547C581.841 547 578.641 549 576.491 550.85V547.5H572.091V574H576.791V553.95C578.591 552.85 581.341 551.5 584.241 551.5ZM619.505 547.5V574H624.205V547.5H619.505ZM621.905 543.8C623.955 543.8 625.255 542.7 625.255 541.05C625.255 539.35 623.955 538.25 621.905 538.25C619.855 538.25 618.505 539.35 618.505 541.05C618.505 542.7 619.855 543.8 621.905 543.8ZM644.018 551.5C647.918 551.5 650.268 553.7 650.268 558.05V574H654.968V557C654.968 550.5 651.618 547 645.768 547C641.418 547 638.018 549 635.768 550.85V547.5H631.368V574H636.068V553.9C637.918 552.8 640.918 551.5 644.018 551.5ZM672.988 567.85C668.538 567.85 665.338 565.3 665.338 560.1C665.338 554.3 669.188 551.2 674.538 551.2C676.788 551.2 678.488 551.65 679.938 552.2V565.55C678.388 566.65 675.888 567.85 672.988 567.85ZM684.638 569.85V549.2C682.188 548.2 678.938 547 674.588 547C666.988 547 660.538 551.6 660.538 560.65C660.538 567.85 665.188 572.1 671.838 572.1C675.438 572.1 678.188 570.65 679.938 569.3V570.45C679.938 575.3 677.088 578 671.638 578C667.688 578 664.388 576.5 661.988 574.85V579.65C664.188 581 667.788 582.4 672.088 582.4C678.988 582.4 684.638 578.8 684.638 569.85ZM713.579 559.65L710.329 558.7C706.929 557.7 704.729 556.9 704.729 554.5C704.729 552.25 706.979 551.15 709.779 551.15C713.529 551.15 717.579 552.65 719.479 554.1V549.4C717.629 548.15 713.829 546.95 710.029 546.95C703.879 546.95 700.179 550.25 700.179 554.65C700.179 559.25 703.529 561.2 707.479 562.2L710.829 563.2C714.229 564.1 716.229 564.85 716.229 567.15C716.229 569.65 714.279 570.55 711.129 570.55C707.029 570.55 702.879 568.95 700.429 567.4V572C702.429 573.25 706.679 574.7 710.929 574.7C716.879 574.7 720.679 572.05 720.679 567.05C720.679 562.95 717.829 560.85 713.579 559.65ZM738.399 574.5C730.449 574.5 724.649 568.55 724.649 560.75C724.649 552.85 730.449 547 738.399 547C746.349 547 752.149 552.85 752.149 560.75C752.149 568.55 746.349 574.5 738.399 574.5ZM738.399 570.1C743.649 570.1 747.499 566.15 747.499 560.75C747.499 555.3 743.649 551.4 738.399 551.4C733.199 551.4 729.299 555.3 729.299 560.75C729.299 566.1 733.199 570.1 738.399 570.1ZM770.382 574.5C762.432 574.5 756.632 568.55 756.632 560.75C756.632 552.85 762.432 547 770.382 547C778.332 547 784.132 552.85 784.132 560.75C784.132 568.55 778.332 574.5 770.382 574.5ZM770.382 570.1C775.632 570.1 779.482 566.15 779.482 560.75C779.482 555.3 775.632 551.4 770.382 551.4C765.182 551.4 761.282 555.3 761.282 560.75C761.282 566.1 765.182 570.1 770.382 570.1ZM802.514 551.5C806.414 551.5 808.764 553.7 808.764 558.05V574H813.464V557C813.464 550.5 810.114 547 804.264 547C799.914 547 796.514 549 794.264 550.85V547.5H789.864V574H794.564V553.9C796.414 552.8 799.414 551.5 802.514 551.5Z" fill="url(#paint0_linear)"/>
<path d="M373.916 574H379.916L394.316 539.6H388.666L376.966 569L365.316 539.6H359.616L373.916 574ZM398.265 547.5V574H402.965V547.5H398.265ZM400.665 543.8C402.715 543.8 404.015 542.7 404.015 541.05C404.015 539.35 402.715 538.25 400.665 538.25C398.615 538.25 397.265 539.35 397.265 541.05C397.265 542.7 398.615 543.8 400.665 543.8ZM421.978 559.65L418.728 558.7C415.328 557.7 413.128 556.9 413.128 554.5C413.128 552.25 415.378 551.15 418.178 551.15C421.928 551.15 425.978 552.65 427.878 554.1V549.4C426.028 548.15 422.228 546.95 418.428 546.95C412.278 546.95 408.578 550.25 408.578 554.65C408.578 559.25 411.928 561.2 415.878 562.2L419.228 563.2C422.628 564.1 424.628 564.85 424.628 567.15C424.628 569.65 422.678 570.55 419.528 570.55C415.428 570.55 411.278 568.95 408.828 567.4V572C410.828 573.25 415.078 574.7 419.328 574.7C425.278 574.7 429.078 572.05 429.078 567.05C429.078 562.95 426.228 560.85 421.978 559.65ZM457.698 574V547.5H452.998V567.55C451.098 568.7 448.148 570 445.048 570C441.148 570 438.798 567.8 438.798 563.45V547.5H434.098V564.5C434.098 571 437.448 574.5 443.248 574.5C447.648 574.5 451.048 572.5 453.298 570.65V574H457.698ZM472.468 570.85C469.818 570.85 467.718 569.8 467.718 567.2C467.718 564.45 470.418 562.6 475.668 562.6C477.368 562.6 479.168 562.9 480.368 563.25V567.75C478.318 569.45 475.468 570.85 472.468 570.85ZM480.368 557.9V560.3C479.168 559.85 477.118 559.35 474.518 559.35C467.718 559.35 463.318 562.75 463.318 567.4C463.318 571.8 466.368 574.5 471.718 574.5C475.668 574.5 478.768 572.55 480.668 570.5V574H485.068V557.85C485.068 549.95 480.068 547 474.318 547C469.418 547 465.368 549.3 463.618 551.1V555.95C465.868 553.65 469.568 551.65 473.718 551.65C477.268 551.65 480.368 553.4 480.368 557.9ZM491.817 539.6V574H496.517V538.85L491.817 539.6ZM534.594 549C532.594 547.65 529.744 546.95 526.694 546.95C518.594 546.95 512.394 552.45 512.394 560.75C512.394 568.8 518.544 574.5 526.644 574.5C529.744 574.5 532.594 573.75 534.594 572.4V567.7C532.594 569.15 529.794 570.05 526.794 570.05C521.194 570.05 517.094 566.35 517.094 560.75C517.094 555 521.194 551.4 526.844 551.4C529.794 551.4 532.594 552.25 534.594 553.7V549ZM552.608 574.5C544.658 574.5 538.858 568.55 538.858 560.75C538.858 552.85 544.658 547 552.608 547C560.558 547 566.358 552.85 566.358 560.75C566.358 568.55 560.558 574.5 552.608 574.5ZM552.608 570.1C557.858 570.1 561.708 566.15 561.708 560.75C561.708 555.3 557.858 551.4 552.608 551.4C547.408 551.4 543.508 555.3 543.508 560.75C543.508 566.1 547.408 570.1 552.608 570.1ZM584.241 551.5C587.791 551.5 589.991 553.65 589.991 557.85V574H594.691V556.55C594.691 555.65 594.641 554.75 594.491 553.95C596.391 552.8 599.191 551.5 602.141 551.5C605.741 551.5 607.941 553.65 607.941 557.85V574H612.591V556.8C612.591 550.45 609.441 547 603.941 547C599.341 547 595.941 549.25 593.641 551.3C592.291 548.5 589.691 547 585.991 547C581.841 547 578.641 549 576.491 550.85V547.5H572.091V574H576.791V553.95C578.591 552.85 581.341 551.5 584.241 551.5ZM619.505 547.5V574H624.205V547.5H619.505ZM621.905 543.8C623.955 543.8 625.255 542.7 625.255 541.05C625.255 539.35 623.955 538.25 621.905 538.25C619.855 538.25 618.505 539.35 618.505 541.05C618.505 542.7 619.855 543.8 621.905 543.8ZM644.018 551.5C647.918 551.5 650.268 553.7 650.268 558.05V574H654.968V557C654.968 550.5 651.618 547 645.768 547C641.418 547 638.018 549 635.768 550.85V547.5H631.368V574H636.068V553.9C637.918 552.8 640.918 551.5 644.018 551.5ZM672.988 567.85C668.538 567.85 665.338 565.3 665.338 560.1C665.338 554.3 669.188 551.2 674.538 551.2C676.788 551.2 678.488 551.65 679.938 552.2V565.55C678.388 566.65 675.888 567.85 672.988 567.85ZM684.638 569.85V549.2C682.188 548.2 678.938 547 674.588 547C666.988 547 660.538 551.6 660.538 560.65C660.538 567.85 665.188 572.1 671.838 572.1C675.438 572.1 678.188 570.65 679.938 569.3V570.45C679.938 575.3 677.088 578 671.638 578C667.688 578 664.388 576.5 661.988 574.85V579.65C664.188 581 667.788 582.4 672.088 582.4C678.988 582.4 684.638 578.8 684.638 569.85ZM713.579 559.65L710.329 558.7C706.929 557.7 704.729 556.9 704.729 554.5C704.729 552.25 706.979 551.15 709.779 551.15C713.529 551.15 717.579 552.65 719.479 554.1V549.4C717.629 548.15 713.829 546.95 710.029 546.95C703.879 546.95 700.179 550.25 700.179 554.65C700.179 559.25 703.529 561.2 707.479 562.2L710.829 563.2C714.229 564.1 716.229 564.85 716.229 567.15C716.229 569.65 714.279 570.55 711.129 570.55C707.029 570.55 702.879 568.95 700.429 567.4V572C702.429 573.25 706.679 574.7 710.929 574.7C716.879 574.7 720.679 572.05 720.679 567.05C720.679 562.95 717.829 560.85 713.579 559.65ZM738.399 574.5C730.449 574.5 724.649 568.55 724.649 560.75C724.649 552.85 730.449 547 738.399 547C746.349 547 752.149 552.85 752.149 560.75C752.149 568.55 746.349 574.5 738.399 574.5ZM738.399 570.1C743.649 570.1 747.499 566.15 747.499 560.75C747.499 555.3 743.649 551.4 738.399 551.4C733.199 551.4 729.299 555.3 729.299 560.75C729.299 566.1 733.199 570.1 738.399 570.1ZM770.382 574.5C762.432 574.5 756.632 568.55 756.632 560.75C756.632 552.85 762.432 547 770.382 547C778.332 547 784.132 552.85 784.132 560.75C784.132 568.55 778.332 574.5 770.382 574.5ZM770.382 570.1C775.632 570.1 779.482 566.15 779.482 560.75C779.482 555.3 775.632 551.4 770.382 551.4C765.182 551.4 761.282 555.3 761.282 560.75C761.282 566.1 765.182 570.1 770.382 570.1ZM802.514 551.5C806.414 551.5 808.764 553.7 808.764 558.05V574H813.464V557C813.464 550.5 810.114 547 804.264 547C799.914 547 796.514 549 794.264 550.85V547.5H789.864V574H794.564V553.9C796.414 552.8 799.414 551.5 802.514 551.5Z" fill="black" fill-opacity="0.2"/>
<path d="M849 89.5983V391.401C849 392.399 848.804 393.387 848.422 394.308C848.04 395.23 847.481 396.068 846.775 396.773C846.069 397.479 845.231 398.039 844.309 398.421C843.387 398.803 842.398 398.999 841.4 399H328.605C328.24 399.003 327.875 398.974 327.515 398.915C325.706 398.655 324.052 397.752 322.855 396.372C321.659 394.992 321 393.227 321 391.401V89.5983C321 88.6008 321.196 87.613 321.578 86.6913C321.959 85.7696 322.519 84.9321 323.225 84.2265C323.931 83.521 324.769 82.9612 325.691 82.5792C326.613 82.1971 327.602 82.0003 328.6 82H841.395C842.393 81.9997 843.382 82.1958 844.304 82.5772C845.227 82.9586 846.065 83.5178 846.771 84.2229C847.478 84.928 848.038 85.7652 848.42 86.6867C848.803 87.6081 849 88.5958 849 89.5933V89.5983Z" fill="url(#paint1_linear)"/>
<path d="M450 262C487.003 262 517 232.003 517 195C517 157.997 487.003 128 450 128C412.997 128 383 157.997 383 195C383 232.003 412.997 262 450 262Z" fill="url(#paint2_linear)"/>
<path d="M659 398.999H332.221C331.812 399.005 331.403 398.972 331 398.902L485.551 130.507C486.495 128.835 487.863 127.445 489.518 126.477C491.173 125.51 493.054 125 494.97 125C496.885 125 498.767 125.51 500.421 126.477C502.076 127.445 503.445 128.835 504.388 130.507L608.112 310.621L613.081 319.24L659 398.999Z" fill="url(#paint3_linear)"/>
<path d="M659 398.999H332.221C331.812 399.005 331.403 398.972 331 398.902L485.551 130.507C486.495 128.835 487.863 127.445 489.518 126.477C491.173 125.51 493.054 125 494.97 125C496.885 125 498.767 125.51 500.421 126.477C502.076 127.445 503.445 128.835 504.388 130.507L608.112 310.621L613.081 319.24L659 398.999Z" fill="black" fill-opacity="0.2"/>
<path opacity="0.2" d="M587.589 348.959H492.985L539.426 281.502L542.769 276.643L544.44 274.212L548.653 281.502L587.589 348.959Z" fill="black"/>
<path d="M842 399H559L613.84 319.199L617.786 313.45L689.248 209.453C693.933 202.637 705.203 202.213 710.711 208.168C711.081 208.574 711.425 209.003 711.74 209.453L842 399Z" fill="url(#paint4_linear)"/>
<path d="M842 399H559L613.84 319.199L617.786 313.45L689.248 209.453C693.933 202.637 705.203 202.213 710.711 208.168C711.081 208.574 711.425 209.003 711.74 209.453L842 399Z" fill="black" fill-opacity="0.2"/>
<path d="M878.567 79.8253C876.863 75.7806 873.748 72.2838 869.646 69.8103C865.543 67.3367 860.652 66.0064 855.637 66H315.362C312.163 65.9989 308.994 66.5386 306.038 67.5881C303.082 68.6376 300.395 70.1765 298.133 72.1166C295.87 74.0568 294.076 76.3603 292.852 78.8955C291.628 81.4306 290.999 84.1477 291 86.8916V453.108C291.009 458.647 293.579 463.956 298.146 467.872C302.713 471.789 308.904 473.992 315.362 474H855.637C862.096 473.992 868.287 471.789 872.854 467.872C877.421 463.956 879.991 458.647 880 453.108V86.8916C880.005 84.4826 879.52 82.0914 878.567 79.8253ZM877.134 453.108C877.127 457.996 874.86 462.681 870.83 466.137C866.8 469.592 861.336 471.536 855.637 471.542H315.362C309.663 471.536 304.2 469.592 300.17 466.137C296.14 462.681 293.873 457.996 293.866 453.108V86.8916C293.873 82.0045 296.14 77.3192 300.17 73.8635C304.2 70.4078 309.663 68.4638 315.362 68.4578H855.637C861.336 68.4638 866.8 70.4078 870.83 73.8635C874.86 77.3192 877.127 82.0045 877.134 86.8916V453.108Z" fill="url(#paint5_linear)"/>
<defs>
<linearGradient id="paint0_linear" x1="420.385" y1="545.209" x2="420.537" y2="601.177" gradientUnits="userSpaceOnUse">
<stop stop-color="#390048"/>
<stop offset="1"/>
</linearGradient>
<linearGradient id="paint1_linear" x1="585" y1="82" x2="585" y2="399" gradientUnits="userSpaceOnUse">
<stop stop-color="#C4FAF8"/>
<stop offset="1" stop-color="#FFCCF9"/>
</linearGradient>
<linearGradient id="paint2_linear" x1="450" y1="128" x2="450" y2="262" gradientUnits="userSpaceOnUse">
<stop stop-color="#E580FF"/>
<stop offset="1" stop-color="#B780FF"/>
</linearGradient>
<linearGradient id="paint3_linear" x1="374.961" y1="189.886" x2="379.382" y2="445.402" gradientUnits="userSpaceOnUse">
<stop stop-color="#390048"/>
<stop offset="1"/>
</linearGradient>
<linearGradient id="paint4_linear" x1="596.93" y1="250.178" x2="599.525" y2="432.041" gradientUnits="userSpaceOnUse">
<stop stop-color="#390048"/>
<stop offset="1"/>
</linearGradient>
<linearGradient id="paint5_linear" x1="585.5" y1="66" x2="585.5" y2="474" gradientUnits="userSpaceOnUse">
<stop stop-color="#C4FAF8"/>
<stop offset="1" stop-color="#FFCCF9"/>
</linearGradient>
</defs>
</svg>
