<svg width="121" height="138" viewBox="0 0 121 138" fill="none" xmlns="http://www.w3.org/2000/svg">
<path d="M60.1056 137.558C59.7018 137.558 59.3051 137.438 58.9557 137.209L1.1424 99.3162C0.794929 99.0884 0.506508 98.7613 0.306014 98.3678C0.105521 97.9743 -6.96841e-06 97.5281 3.45127e-10 97.074V45.3258C2.03065e-06 44.8718 0.105485 44.4258 0.305887 44.0324C0.50629 43.6389 0.794582 43.312 1.1419 43.0841C1.48922 42.8563 1.88338 42.7356 2.28493 42.7341C2.68647 42.7327 3.0813 42.8505 3.42991 43.0758L61.2425 80.4257C61.5933 80.6524 61.8849 80.9799 62.0877 81.375C62.2904 81.7702 62.3972 82.2189 62.3972 82.6757V134.965C62.3972 135.653 62.1557 136.312 61.7258 136.798C61.2959 137.284 60.7128 137.557 60.1049 137.557L60.1056 137.558ZM4.58419 95.5796L57.813 130.467V84.1792L4.58419 49.7916V95.5796Z" fill="url(#paint0_linear)"/>
<path d="M60.1056 137.558C59.4977 137.558 58.9146 137.285 58.4847 136.799C58.0549 136.313 57.8134 135.654 57.8134 134.966V82.6753C57.8133 82.2185 57.9201 81.7698 58.1229 81.3746C58.3256 80.9795 58.6172 80.652 58.968 80.4253L116.781 43.0758C117.13 42.8505 117.524 42.7327 117.926 42.7341C118.327 42.7356 118.722 42.8563 119.069 43.0841C119.416 43.312 119.705 43.6389 119.905 44.0324C120.105 44.4258 120.211 44.8718 120.211 45.3258V97.0728C120.211 97.527 120.105 97.9731 119.905 98.3667C119.704 98.7602 119.416 99.0872 119.068 99.3151L61.2552 137.208C60.906 137.437 60.5094 137.558 60.1056 137.558V137.558ZM62.3979 84.1804V130.467L115.626 95.5796V49.7916L62.3979 84.1804Z" fill="url(#paint1_linear)"/>
<path d="M2.29441 47.9174C1.78542 47.9178 1.29079 47.7267 0.888476 47.3742C0.486162 47.0217 0.199042 46.5278 0.0723734 45.9704C-0.0542951 45.4131 -0.0133101 44.8239 0.188868 44.2958C0.391046 43.7676 0.742921 43.3306 1.18903 43.0535L14.8645 34.5643C15.3974 34.2333 16.0248 34.1553 16.6086 34.3473C17.1924 34.5394 17.6849 34.9858 17.9776 35.5883C18.2703 36.1908 18.3393 36.9002 18.1695 37.5602C17.9996 38.2203 17.6048 38.777 17.0719 39.108L3.3964 47.5972C3.05883 47.8073 2.67975 47.9175 2.29441 47.9174V47.9174Z" fill="url(#paint2_linear)"/>
<path d="M37.9857 25.7633C37.4767 25.7637 36.9821 25.5725 36.5798 25.22C36.1774 24.8675 35.8903 24.3736 35.7637 23.8163C35.637 23.2589 35.678 22.6697 35.8802 22.1416C36.0823 21.6135 36.4342 21.1764 36.8803 20.8993L45.8796 15.3128C46.4125 14.9819 47.0399 14.9038 47.6237 15.0959C47.9128 15.191 48.1824 15.3495 48.4173 15.5624C48.6522 15.7753 48.8477 16.0385 48.9926 16.3368C49.1376 16.6352 49.2291 16.9629 49.2621 17.3012C49.295 17.6396 49.2686 17.9819 49.1845 18.3088C49.1004 18.6356 48.9602 18.9405 48.7719 19.2061C48.5836 19.4716 48.3508 19.6927 48.0869 19.8565L39.0877 25.4431C38.7501 25.6532 38.371 25.7633 37.9857 25.7633V25.7633Z" fill="url(#paint3_linear)"/>
<path d="M82.4685 25.9093C82.0835 25.9092 81.7048 25.7991 81.3675 25.589L72.1387 19.8604C71.6058 19.5295 71.211 18.9727 71.0411 18.3127C70.8712 17.6526 70.9403 16.9433 71.233 16.3407C71.5257 15.7382 72.0181 15.2918 72.602 15.0998C73.1858 14.9077 73.8131 14.9858 74.3461 15.3167L83.5763 21.0453C84.0223 21.3224 84.3742 21.7594 84.5764 22.2875C84.7786 22.8156 84.8196 23.4047 84.693 23.9621C84.5663 24.5194 84.2793 25.0133 83.877 25.3658C83.4748 25.7184 82.9802 25.9096 82.4712 25.9093H82.4685Z" fill="url(#paint4_linear)"/>
<path d="M117.916 47.917C117.531 47.9169 117.152 47.8068 116.815 47.5968L103.622 39.4071C103.089 39.0761 102.694 38.5194 102.524 37.8593C102.354 37.1992 102.423 36.4899 102.716 35.8874C103.009 35.2848 103.501 34.8384 104.085 34.6464C104.669 34.4544 105.296 34.5324 105.829 34.8634L119.022 43.0531C119.468 43.3302 119.82 43.7672 120.022 44.2953C120.225 44.8235 120.266 45.4127 120.139 45.97C120.012 46.5274 119.725 47.0213 119.323 47.3738C118.92 47.7263 118.426 47.9174 117.917 47.917H117.916Z" fill="url(#paint5_linear)"/>
<path d="M60.1048 23.3594C55.2146 23.3594 50.586 21.6277 47.7249 18.7274C45.7335 16.7089 44.6804 14.2735 44.6804 11.6799C44.6804 5.13039 51.4557 0 60.1048 0C68.754 0 75.5296 5.13039 75.5296 11.6799C75.5296 11.8001 75.5258 11.916 75.5221 12.0354L75.52 12.0915C75.4141 14.5273 74.3654 16.8214 72.4898 18.7266C69.6257 21.6277 64.9977 23.3594 60.1048 23.3594ZM60.1048 5.18299C53.7167 5.18299 49.265 8.60671 49.265 11.6795C49.265 13.0414 50.0919 14.1652 50.7853 14.8663C52.7984 16.9066 56.3693 18.1745 60.1048 18.1745C63.8994 18.1745 67.3847 16.9377 69.4281 14.8667C70.0862 14.1982 70.8846 13.1285 70.9406 11.8335C70.9426 11.7763 70.945 11.7271 70.945 11.6764C70.945 8.60671 66.4929 5.18299 60.1048 5.18299Z" fill="url(#paint6_linear)"/>
<path d="M60.1048 33.5954C51.4557 33.5954 44.6804 28.4651 44.6804 21.9156L44.6842 21.6814C44.6842 20.994 44.9257 20.3348 45.3555 19.8488C45.7854 19.3627 46.3685 19.0897 46.9764 19.0897C47.5844 19.0897 48.1674 19.3627 48.5973 19.8488C49.0272 20.3348 49.2687 20.994 49.2687 21.6814C49.2687 21.7904 49.2666 21.8764 49.265 21.9367V21.9156C49.265 24.9872 53.7167 28.4121 60.1048 28.4121C66.4929 28.4121 70.945 24.9884 70.945 21.9156V21.815C70.943 21.7689 70.942 21.7274 70.942 21.681C70.9344 20.9936 71.1686 20.331 71.5931 19.8389C72.0176 19.3468 72.5976 19.0654 73.2055 19.0568C73.8135 19.0482 74.3996 19.313 74.8348 19.793C75.2701 20.2729 75.5189 20.9287 75.5265 21.6161C75.5299 21.7155 75.5306 21.8173 75.5306 21.9152C75.5296 28.4651 68.754 33.5954 60.1048 33.5954Z" fill="url(#paint7_linear)"/>
<path d="M46.9727 24.5074C46.3648 24.5074 45.7817 24.2343 45.3518 23.7483C44.9219 23.2623 44.6804 22.6031 44.6804 21.9157L44.6842 21.6815C44.7008 20.1019 44.6808 11.7709 44.6804 11.6868C44.6795 11.3464 44.7379 11.0091 44.8522 10.6942C44.9666 10.3792 45.1347 10.0929 45.347 9.85143C45.5593 9.60998 45.8115 9.41817 46.0893 9.28695C46.3672 9.15574 46.6652 9.08768 46.9663 9.08667H46.9727C47.5795 9.08667 48.1616 9.35872 48.5913 9.84318C49.021 10.3276 49.2633 10.985 49.265 11.6711C49.265 12.0166 49.2857 20.125 49.2684 21.7111C49.2684 21.7879 49.2684 21.875 49.265 21.9353V21.9142C49.2652 22.2546 49.206 22.5918 49.0909 22.9064C48.9758 23.2211 48.8069 23.5069 48.5941 23.7478C48.3812 23.9886 48.1284 24.1796 47.8502 24.31C47.572 24.4403 47.2738 24.5074 46.9727 24.5074V24.5074Z" fill="url(#paint8_linear)"/>
<path d="M73.2301 24.5148C72.6215 24.5132 72.0383 24.2386 71.6086 23.7513C71.1788 23.2641 70.9376 22.6039 70.9379 21.9158L70.9413 21.6816V21.6351C70.9559 20.0813 70.9385 12.3008 70.9379 11.9706V11.6796C70.9379 10.9922 71.1794 10.333 71.6093 9.84698C72.0391 9.36094 72.6222 9.08789 73.2301 9.08789C73.8381 9.08789 74.4211 9.36094 74.851 9.84698C75.2809 10.333 75.5224 10.9922 75.5224 11.6796V11.9637C75.5224 12.2889 75.5404 20.1035 75.5258 21.6896C75.5258 21.7876 75.5258 21.8716 75.5227 21.93C75.5226 22.27 75.4632 22.6067 75.3479 22.9207C75.2326 23.2348 75.0636 23.52 74.8507 23.7601C74.6377 24.0002 74.385 24.1904 74.1069 24.3199C73.8288 24.4494 73.5309 24.5156 73.2301 24.5148V24.5148Z" fill="url(#paint9_linear)"/>
<path d="M60.1048 59.2224C55.2146 59.2224 50.5867 57.4908 47.7249 54.5908C45.7335 52.5719 44.6804 50.1369 44.6804 47.5429C44.6804 40.9934 51.4557 35.863 60.1048 35.863C68.754 35.863 75.5296 40.9934 75.5296 47.5429C75.5296 47.6631 75.5258 47.779 75.5221 47.8985L75.52 47.9545C75.4141 50.3903 74.3654 52.6844 72.4898 54.5896C69.6257 57.4912 64.9974 59.2224 60.1048 59.2224ZM60.1048 41.046C53.7167 41.046 49.265 44.4697 49.265 47.5425C49.265 48.9044 50.0919 50.0282 50.7853 50.7293C52.7984 52.7697 56.3696 54.0375 60.1048 54.0375C63.84 54.0375 67.4149 52.7704 69.4281 50.7293C70.0862 50.0613 70.8846 48.9916 70.9406 47.698C70.9426 47.6408 70.945 47.5917 70.945 47.541C70.945 44.4697 66.4929 41.046 60.1048 41.046V41.046Z" fill="url(#paint10_linear)"/>
<path d="M60.1048 69.4583C51.4557 69.4583 44.6804 64.3279 44.6804 57.7784L44.6842 57.5442C44.6842 56.8568 44.9257 56.1976 45.3555 55.7116C45.7854 55.2255 46.3685 54.9525 46.9764 54.9525C47.5844 54.9525 48.1674 55.2255 48.5973 55.7116C49.0272 56.1976 49.2687 56.8568 49.2687 57.5442C49.2687 57.6528 49.2666 57.7388 49.265 57.7991V57.7784C49.265 60.85 53.7167 64.2749 60.1048 64.2749C66.4929 64.2749 70.945 60.8511 70.945 57.7784V57.6778C70.943 57.6317 70.942 57.5902 70.942 57.5438C70.9344 56.8564 71.1686 56.1938 71.5931 55.7017C72.0176 55.2095 72.5976 54.9282 73.2055 54.9196C73.8135 54.911 74.3996 55.1758 74.8348 55.6558C75.2701 56.1357 75.5189 56.7915 75.5265 57.4789C75.5299 57.5783 75.5306 57.6801 75.5306 57.778C75.5296 64.3279 68.754 69.4583 60.1048 69.4583Z" fill="url(#paint11_linear)"/>
<path d="M46.9727 60.3705C46.3648 60.3705 45.7817 60.0975 45.3518 59.6114C44.9219 59.1254 44.6804 58.4662 44.6804 57.7788L44.6842 57.5446C44.7008 55.965 44.6808 47.634 44.6804 47.5499C44.6788 46.8626 44.9187 46.2027 45.3474 45.7153C45.776 45.2279 46.3583 44.953 46.9662 44.9509H46.9727C47.5795 44.9509 48.1616 45.223 48.5913 45.7074C49.021 46.1919 49.2633 46.8492 49.265 47.5353C49.265 47.8809 49.2857 55.9892 49.2684 57.5753C49.2684 57.6521 49.2684 57.7389 49.265 57.7992V57.7784C49.265 58.1188 49.2058 58.4559 49.0906 58.7704C48.9754 59.0848 48.8066 59.3706 48.5937 59.6113C48.3808 59.852 48.1281 60.0429 47.85 60.1732C47.5719 60.3035 47.2738 60.3705 46.9727 60.3705V60.3705Z" fill="url(#paint12_linear)"/>
<path d="M73.2301 60.3778C72.6215 60.3762 72.0383 60.1016 71.6086 59.6143C71.1788 59.1271 70.9376 58.4669 70.9379 57.7788L70.9413 57.5446V57.4981C70.9559 55.9443 70.9385 48.1638 70.9379 47.8336V47.5426C70.9379 46.8553 71.1794 46.196 71.6093 45.71C72.0391 45.224 72.6222 44.9509 73.2301 44.9509C73.8381 44.9509 74.4211 45.224 74.851 45.71C75.2809 46.196 75.5224 46.8553 75.5224 47.5426V47.8267C75.5224 48.1519 75.5404 55.9666 75.5258 57.5527C75.5258 57.6502 75.5258 57.7343 75.5227 57.7926C75.5226 58.1327 75.4632 58.4694 75.3479 58.7834C75.2326 59.0975 75.0636 59.3827 74.8507 59.6228C74.6377 59.863 74.385 60.0532 74.1069 60.1828C73.8288 60.3123 73.5309 60.3786 73.2301 60.3778V60.3778Z" fill="url(#paint13_linear)"/>
<path d="M91.5904 41.5354C86.7002 41.5354 82.0712 39.8038 79.2101 36.9034C77.2188 34.8853 76.166 32.4495 76.166 29.8559C76.166 23.3064 82.9413 18.176 91.5904 18.176C100.24 18.176 107.015 23.3064 107.015 29.8559C107.015 29.9826 107.011 30.1043 107.007 30.231C106.899 32.7041 105.852 34.9986 103.975 36.9026C101.113 39.8026 96.4833 41.5354 91.5904 41.5354ZM91.5904 23.359C85.2023 23.359 80.7505 26.7827 80.7505 29.8555C80.7505 31.2178 81.5771 32.3413 82.2702 33.0424C84.2837 35.0827 87.8545 36.3505 91.5904 36.3505C95.3851 36.3505 98.8703 35.1138 100.914 33.0427C101.572 32.3743 102.37 31.305 102.426 30.0095C102.426 29.9676 102.43 29.9112 102.43 29.8532C102.43 26.7827 97.9782 23.359 91.5904 23.359Z" fill="url(#paint14_linear)"/>
<path d="M91.5876 51.7722C82.9385 51.7722 76.1632 46.6418 76.1632 40.0923L76.1666 39.8581C76.1666 39.1707 76.4081 38.5115 76.838 38.0254C77.2679 37.5394 77.8509 37.2664 78.4589 37.2664C79.0668 37.2664 79.6499 37.5394 80.0797 38.0254C80.5096 38.5115 80.7511 39.1707 80.7511 39.8581C80.7511 39.964 80.7511 40.05 80.7477 40.1065C80.7477 43.165 85.1995 46.5888 91.5876 46.5888C97.9757 46.5888 102.427 43.1651 102.427 40.0923C102.427 40.0562 102.427 40.0189 102.427 39.9824C102.427 39.946 102.425 39.8918 102.425 39.8581C102.418 39.1707 102.653 38.5084 103.078 38.0168C103.503 37.5253 104.083 37.2448 104.691 37.237C105.299 37.2292 105.885 37.4948 106.32 37.9753C106.754 38.4558 107.002 39.1119 107.009 39.7993C107.012 39.8968 107.013 39.9967 107.013 40.0926C107.012 46.6418 100.236 51.7722 91.5876 51.7722Z" fill="url(#paint15_linear)"/>
<path d="M78.4551 42.691C77.8465 42.6894 77.2633 42.4148 76.8336 41.9276C76.4038 41.4403 76.1626 40.7802 76.1629 40.0921L76.1663 39.8579C76.1829 38.2783 76.1632 29.9472 76.1629 29.8631C76.162 29.5228 76.2205 29.1856 76.3349 28.8708C76.4493 28.556 76.6174 28.2697 76.8297 28.0284C77.0419 27.7871 77.2942 27.5954 77.5719 27.4642C77.8497 27.3331 78.1476 27.2651 78.4487 27.2642H78.4551C79.0619 27.2642 79.644 27.5362 80.0737 28.0207C80.5034 28.5051 80.7457 29.1625 80.7474 29.8486C80.7474 30.1941 80.7678 38.3025 80.7504 39.8886C80.7504 39.9654 80.7504 40.0475 80.7477 40.1059C80.7477 40.4459 80.6883 40.7826 80.573 41.0967C80.4577 41.4108 80.2887 41.6961 80.0758 41.9362C79.8628 42.1763 79.61 42.3666 79.3319 42.4961C79.0538 42.6257 78.7559 42.6919 78.4551 42.691V42.691Z" fill="url(#paint16_linear)"/>
<path d="M104.713 42.691C104.104 42.6894 103.521 42.4148 103.091 41.9276C102.662 41.4403 102.42 40.7802 102.421 40.0921L102.424 39.8579V39.8114C102.439 38.2575 102.421 30.4771 102.421 30.1469V29.8558C102.421 29.1685 102.662 28.5093 103.092 28.0232C103.522 27.5372 104.105 27.2642 104.713 27.2642C105.321 27.2642 105.904 27.5372 106.334 28.0232C106.764 28.5093 107.005 29.1685 107.005 29.8558V30.14C107.005 30.4652 107.023 38.2798 107.009 39.8659C107.009 39.9638 107.009 40.0479 107.006 40.1063C107.005 40.4463 106.946 40.783 106.831 41.097C106.715 41.411 106.546 41.6962 106.333 41.9363C106.121 42.1764 105.868 42.3667 105.59 42.4962C105.312 42.6257 105.014 42.6919 104.713 42.691V42.691Z" fill="url(#paint17_linear)"/>
<path d="M29.0898 41.5354C24.1996 41.5354 19.5706 39.8038 16.7095 36.9034C14.7181 34.8853 13.6654 32.4495 13.6654 29.8559C13.6654 23.3064 20.4407 18.176 29.0898 18.176C37.739 18.176 44.5142 23.3064 44.5142 29.8559C44.5142 29.9826 44.5105 30.1043 44.5064 30.231C44.3988 32.7041 43.3518 34.9986 41.4745 36.9026C38.6124 39.8026 33.9827 41.5354 29.0898 41.5354ZM29.0898 23.359C22.7017 23.359 18.2499 26.7827 18.2499 29.8555C18.2499 31.2178 19.0765 32.3413 19.7696 33.0424C21.7831 35.0827 25.3539 36.3505 29.0898 36.3505C32.8844 36.3505 36.3697 35.1138 38.4131 33.0427C39.0712 32.3743 39.8692 31.305 39.9256 30.0095C39.9256 29.9676 39.9297 29.9112 39.9297 29.8532C39.9297 26.7827 35.4776 23.359 29.0898 23.359Z" fill="url(#paint18_linear)"/>
<path d="M29.0898 51.7722C20.4407 51.7722 13.6654 46.6418 13.6654 40.0923L13.6688 39.8581C13.6688 39.1707 13.9103 38.5115 14.3402 38.0254C14.7701 37.5394 15.3531 37.2664 15.9611 37.2664C16.569 37.2664 17.1521 37.5394 17.5819 38.0254C18.0118 38.5115 18.2533 39.1707 18.2533 39.8581C18.2533 39.964 18.2533 40.05 18.2499 40.1065C18.2499 43.165 22.7017 46.5888 29.0898 46.5888C35.4779 46.5888 39.9297 43.1651 39.9297 40.0923C39.9297 40.0562 39.9297 40.0189 39.9297 39.9824C39.9297 39.946 39.927 39.8918 39.927 39.8581C39.9201 39.1707 40.155 38.5084 40.58 38.0168C41.005 37.5253 41.5853 37.2448 42.1933 37.237C42.8012 37.2292 43.387 37.4948 43.8217 37.9753C44.2565 38.4558 44.5046 39.1119 44.5115 39.7993C44.5146 39.8968 44.5152 39.9967 44.5152 40.0926C44.5142 46.6418 37.7379 51.7722 29.0898 51.7722Z" fill="url(#paint19_linear)"/>
<path d="M15.9577 42.691C15.3491 42.6894 14.7659 42.4148 14.3361 41.9276C13.9064 41.4403 13.6651 40.7802 13.6654 40.0921L13.6688 39.8579C13.6854 38.2783 13.6658 29.9472 13.6654 29.8631C13.6646 29.5228 13.723 29.1856 13.8374 28.8708C13.9518 28.556 14.12 28.2697 14.3322 28.0284C14.5445 27.7871 14.7967 27.5954 15.0745 27.4642C15.3523 27.3331 15.6502 27.2651 15.9512 27.2642H15.9577C16.5645 27.2642 17.1466 27.5362 17.5763 28.0207C18.006 28.5051 18.2483 29.1625 18.25 29.8486C18.25 30.1941 18.2704 38.3025 18.253 39.8886C18.253 39.9654 18.253 40.0475 18.2503 40.1059C18.2503 40.4459 18.1909 40.7826 18.0756 41.0967C17.9603 41.4108 17.7913 41.6961 17.5784 41.9362C17.3654 42.1763 17.1126 42.3666 16.8345 42.4961C16.5564 42.6257 16.2585 42.6919 15.9577 42.691Z" fill="url(#paint20_linear)"/>
<path d="M42.215 42.691C41.6064 42.6894 41.0232 42.4148 40.5934 41.9276C40.1637 41.4403 39.9225 40.7802 39.9227 40.0921L39.9261 39.8579V39.8114C39.9407 38.2575 39.9234 30.4771 39.9227 30.1469V29.8558C39.9227 29.1685 40.1642 28.5093 40.5941 28.0232C41.024 27.5372 41.6071 27.2642 42.215 27.2642C42.8229 27.2642 43.406 27.5372 43.8359 28.0232C44.2658 28.5093 44.5073 29.1685 44.5073 29.8558V30.14C44.5073 30.4652 44.5253 38.2798 44.5107 39.8659C44.5107 39.9638 44.5107 40.0479 44.5076 40.1063C44.5075 40.4463 44.4481 40.783 44.3328 41.097C44.2175 41.411 44.0485 41.6962 43.8355 41.9363C43.6226 42.1764 43.3698 42.3667 43.0918 42.4962C42.8137 42.6257 42.5157 42.6919 42.215 42.691V42.691Z" fill="url(#paint21_linear)"/>
<defs>
<linearGradient id="paint0_linear" x1="31.1986" y1="42.7341" x2="31.1986" y2="137.558" gradientUnits="userSpaceOnUse">
<stop stop-color="#E580FF"/>
<stop offset="1" stop-color="#B780FF"/>
</linearGradient>
<linearGradient id="paint1_linear" x1="89.0121" y1="42.7341" x2="89.0121" y2="137.558" gradientUnits="userSpaceOnUse">
<stop stop-color="#E580FF"/>
<stop offset="1" stop-color="#B780FF"/>
</linearGradient>
<linearGradient id="paint2_linear" x1="9.13049" y1="34.2441" x2="9.13049" y2="47.9174" gradientUnits="userSpaceOnUse">
<stop stop-color="#E580FF"/>
<stop offset="1" stop-color="#B780FF"/>
</linearGradient>
<linearGradient id="paint3_linear" x1="42.4837" y1="14.9927" x2="42.4837" y2="25.7633" gradientUnits="userSpaceOnUse">
<stop stop-color="#E580FF"/>
<stop offset="1" stop-color="#B780FF"/>
</linearGradient>
<linearGradient id="paint4_linear" x1="77.8574" y1="14.9966" x2="77.8574" y2="25.9093" gradientUnits="userSpaceOnUse">
<stop stop-color="#E580FF"/>
<stop offset="1" stop-color="#B780FF"/>
</linearGradient>
<linearGradient id="paint5_linear" x1="111.322" y1="34.5432" x2="111.322" y2="47.917" gradientUnits="userSpaceOnUse">
<stop stop-color="#E580FF"/>
<stop offset="1" stop-color="#B780FF"/>
</linearGradient>
<linearGradient id="paint6_linear" x1="60.105" y1="0" x2="60.105" y2="23.3594" gradientUnits="userSpaceOnUse">
<stop stop-color="#E580FF"/>
<stop offset="1" stop-color="#B780FF"/>
</linearGradient>
<linearGradient id="paint7_linear" x1="60.1055" y1="19.0566" x2="60.1055" y2="33.5954" gradientUnits="userSpaceOnUse">
<stop stop-color="#E580FF"/>
<stop offset="1" stop-color="#B780FF"/>
</linearGradient>
<linearGradient id="paint8_linear" x1="46.9779" y1="9.08667" x2="46.9779" y2="24.5074" gradientUnits="userSpaceOnUse">
<stop stop-color="#E580FF"/>
<stop offset="1" stop-color="#B780FF"/>
</linearGradient>
<linearGradient id="paint9_linear" x1="73.2347" y1="9.08789" x2="73.2347" y2="24.5148" gradientUnits="userSpaceOnUse">
<stop stop-color="#E580FF"/>
<stop offset="1" stop-color="#B780FF"/>
</linearGradient>
<linearGradient id="paint10_linear" x1="60.105" y1="35.863" x2="60.105" y2="59.2224" gradientUnits="userSpaceOnUse">
<stop stop-color="#E580FF"/>
<stop offset="1" stop-color="#B780FF"/>
</linearGradient>
<linearGradient id="paint11_linear" x1="60.1055" y1="54.9194" x2="60.1055" y2="69.4583" gradientUnits="userSpaceOnUse">
<stop stop-color="#E580FF"/>
<stop offset="1" stop-color="#B780FF"/>
</linearGradient>
<linearGradient id="paint12_linear" x1="46.9779" y1="44.9509" x2="46.9779" y2="60.3705" gradientUnits="userSpaceOnUse">
<stop stop-color="#E580FF"/>
<stop offset="1" stop-color="#B780FF"/>
</linearGradient>
<linearGradient id="paint13_linear" x1="73.2347" y1="44.9509" x2="73.2347" y2="60.3778" gradientUnits="userSpaceOnUse">
<stop stop-color="#E580FF"/>
<stop offset="1" stop-color="#B780FF"/>
</linearGradient>
<linearGradient id="paint14_linear" x1="91.5904" y1="18.176" x2="91.5904" y2="41.5354" gradientUnits="userSpaceOnUse">
<stop stop-color="#E580FF"/>
<stop offset="1" stop-color="#B780FF"/>
</linearGradient>
<linearGradient id="paint15_linear" x1="91.5881" y1="37.2368" x2="91.5881" y2="51.7722" gradientUnits="userSpaceOnUse">
<stop stop-color="#E580FF"/>
<stop offset="1" stop-color="#B780FF"/>
</linearGradient>
<linearGradient id="paint16_linear" x1="78.4601" y1="27.2642" x2="78.4601" y2="42.6911" gradientUnits="userSpaceOnUse">
<stop stop-color="#E580FF"/>
<stop offset="1" stop-color="#B780FF"/>
</linearGradient>
<linearGradient id="paint17_linear" x1="104.717" y1="27.2642" x2="104.717" y2="42.6911" gradientUnits="userSpaceOnUse">
<stop stop-color="#E580FF"/>
<stop offset="1" stop-color="#B780FF"/>
</linearGradient>
<linearGradient id="paint18_linear" x1="29.0898" y1="18.176" x2="29.0898" y2="41.5354" gradientUnits="userSpaceOnUse">
<stop stop-color="#E580FF"/>
<stop offset="1" stop-color="#B780FF"/>
</linearGradient>
<linearGradient id="paint19_linear" x1="29.0903" y1="37.2368" x2="29.0903" y2="51.7722" gradientUnits="userSpaceOnUse">
<stop stop-color="#E580FF"/>
<stop offset="1" stop-color="#B780FF"/>
</linearGradient>
<linearGradient id="paint20_linear" x1="15.9627" y1="27.2642" x2="15.9627" y2="42.6911" gradientUnits="userSpaceOnUse">
<stop stop-color="#E580FF"/>
<stop offset="1" stop-color="#B780FF"/>
</linearGradient>
<linearGradient id="paint21_linear" x1="42.2196" y1="27.2642" x2="42.2196" y2="42.6911" gradientUnits="userSpaceOnUse">
<stop stop-color="#E580FF"/>
<stop offset="1" stop-color="#B780FF"/>
</linearGradient>
</defs>
</svg>
