<svg width="212" height="138" viewBox="0 0 212 138" fill="none" xmlns="http://www.w3.org/2000/svg">
<path d="M135.281 57.4272H3.46875C2.54878 57.4272 1.66649 57.7934 1.01597 58.445C0.365456 59.0967 0 59.9806 0 60.9022V133.877C0 134.799 0.365456 135.683 1.01597 136.334C1.66649 136.986 2.54878 137.352 3.46875 137.352H135.281C136.201 137.352 137.084 136.986 137.734 136.334C138.385 135.683 138.75 134.799 138.75 133.877V60.9022C138.75 59.9806 138.385 59.0967 137.734 58.445C137.084 57.7934 136.201 57.4272 135.281 57.4272ZM131.812 130.402H6.9375V64.3772H131.812V130.402Z" fill="url(#paint0_linear)"/>
<path d="M27.75 95.6523C30.4942 95.6523 33.1768 94.8371 35.4585 93.3097C37.7403 91.7824 39.5187 89.6115 40.5688 87.0716C41.619 84.5317 41.8938 81.7369 41.3584 79.0405C40.823 76.3442 39.5016 73.8675 37.5611 71.9235C35.6207 69.9796 33.1484 68.6557 30.4569 68.1194C27.7654 67.5831 24.9756 67.8583 22.4403 68.9104C19.9049 69.9624 17.738 71.744 16.2134 74.0299C14.6888 76.3157 13.875 79.0031 13.875 81.7523C13.875 85.4388 15.3368 88.9743 17.9389 91.5811C20.541 94.1878 24.0701 95.6523 27.75 95.6523ZM27.75 74.8023C29.1221 74.8023 30.4634 75.2099 31.6043 75.9736C32.7451 76.7373 33.6343 77.8227 34.1594 79.0927C34.6845 80.3626 34.8219 81.76 34.5542 83.1082C34.2865 84.4563 33.6258 85.6947 32.6556 86.6667C31.6853 87.6387 30.4492 88.3006 29.1034 88.5688C27.7577 88.8369 26.3628 88.6993 25.0951 88.1733C23.8275 87.6472 22.744 86.7564 21.9817 85.6135C21.2194 84.4706 20.8125 83.1269 20.8125 81.7523C20.8125 79.909 21.5434 78.1413 22.8444 76.8379C24.1455 75.5345 25.9101 74.8023 27.75 74.8023Z" fill="url(#paint1_linear)"/>
<path d="M27.75 126.927C30.4942 126.927 33.1768 126.112 35.4585 124.585C37.7403 123.058 39.5187 120.887 40.5688 118.347C41.619 115.807 41.8938 113.012 41.3584 110.316C40.823 107.619 39.5016 105.143 37.5611 103.199C35.6207 101.255 33.1484 99.9309 30.4569 99.3945C27.7654 98.8582 24.9756 99.1335 22.4403 100.186C19.9049 101.238 17.738 103.019 16.2134 105.305C14.6888 107.591 13.875 110.278 13.875 113.027C13.875 116.714 15.3368 120.249 17.9389 122.856C20.541 125.463 24.0701 126.927 27.75 126.927ZM27.75 106.077C29.1221 106.077 30.4634 106.485 31.6043 107.249C32.7451 108.012 33.6343 109.098 34.1594 110.368C34.6845 111.638 34.8219 113.035 34.5542 114.383C34.2865 115.732 33.6258 116.97 32.6556 117.942C31.6853 118.914 30.4492 119.576 29.1034 119.844C27.7577 120.112 26.3628 119.974 25.0951 119.448C23.8275 118.922 22.744 118.032 21.9817 116.889C21.2194 115.746 20.8125 114.402 20.8125 113.027C20.8125 111.184 21.5434 109.416 22.8444 108.113C24.1455 106.81 25.9101 106.077 27.75 106.077Z" fill="url(#paint2_linear)"/>
<path d="M69.375 95.6523C72.1192 95.6523 74.8018 94.8371 77.0835 93.3097C79.3653 91.7824 81.1437 89.6115 82.1938 87.0716C83.244 84.5317 83.5188 81.7369 82.9834 79.0405C82.448 76.3442 81.1266 73.8675 79.1861 71.9235C77.2457 69.9796 74.7734 68.6557 72.0819 68.1194C69.3904 67.5831 66.6006 67.8583 64.0653 68.9104C61.5299 69.9624 59.363 71.744 57.8384 74.0299C56.3138 76.3157 55.5 79.0031 55.5 81.7523C55.5 85.4388 56.9618 88.9743 59.5639 91.5811C62.166 94.1878 65.6951 95.6523 69.375 95.6523ZM69.375 74.8023C70.7471 74.8023 72.0884 75.2099 73.2293 75.9736C74.3701 76.7373 75.2593 77.8227 75.7844 79.0927C76.3095 80.3626 76.4469 81.76 76.1792 83.1082C75.9115 84.4563 75.2508 85.6947 74.2806 86.6667C73.3103 87.6387 72.0742 88.3006 70.7284 88.5688C69.3827 88.8369 67.9878 88.6993 66.7201 88.1733C65.4525 87.6472 64.369 86.7564 63.6067 85.6135C62.8444 84.4706 62.4375 83.1269 62.4375 81.7523C62.4375 79.909 63.1684 78.1413 64.4694 76.8379C65.7705 75.5345 67.5351 74.8023 69.375 74.8023V74.8023Z" fill="url(#paint3_linear)"/>
<path d="M69.375 126.927C72.1192 126.927 74.8018 126.112 77.0835 124.585C79.3653 123.058 81.1437 120.887 82.1938 118.347C83.244 115.807 83.5188 113.012 82.9834 110.316C82.448 107.619 81.1266 105.143 79.1861 103.199C77.2457 101.255 74.7734 99.9309 72.0819 99.3945C69.3904 98.8582 66.6006 99.1335 64.0653 100.186C61.5299 101.238 59.363 103.019 57.8384 105.305C56.3138 107.591 55.5 110.278 55.5 113.027C55.5 116.714 56.9618 120.249 59.5639 122.856C62.166 125.463 65.6951 126.927 69.375 126.927ZM69.375 106.077C70.7471 106.077 72.0884 106.485 73.2293 107.249C74.3701 108.012 75.2593 109.098 75.7844 110.368C76.3095 111.638 76.4469 113.035 76.1792 114.383C75.9115 115.732 75.2508 116.97 74.2806 117.942C73.3103 118.914 72.0742 119.576 70.7284 119.844C69.3827 120.112 67.9878 119.974 66.7201 119.448C65.4525 118.922 64.369 118.032 63.6067 116.889C62.8444 115.746 62.4375 114.402 62.4375 113.027C62.4375 111.184 63.1684 109.416 64.4694 108.113C65.7705 106.81 67.5351 106.077 69.375 106.077V106.077Z" fill="url(#paint4_linear)"/>
<path d="M111 95.6523C113.744 95.6523 116.427 94.8371 118.709 93.3097C120.99 91.7824 122.769 89.6115 123.819 87.0716C124.869 84.5317 125.144 81.7369 124.608 79.0405C124.073 76.3442 122.752 73.8675 120.811 71.9235C118.871 69.9796 116.398 68.6557 113.707 68.1194C111.015 67.5831 108.226 67.8583 105.69 68.9104C103.155 69.9624 100.988 71.744 99.4634 74.0299C97.9388 76.3157 97.125 79.0031 97.125 81.7523C97.125 85.4388 98.5868 88.9743 101.189 91.5811C103.791 94.1878 107.32 95.6523 111 95.6523ZM111 74.8023C112.372 74.8023 113.713 75.2099 114.854 75.9736C115.995 76.7373 116.884 77.8227 117.409 79.0927C117.934 80.3626 118.072 81.76 117.804 83.1082C117.537 84.4563 116.876 85.6947 115.906 86.6667C114.935 87.6387 113.699 88.3006 112.353 88.5688C111.008 88.8369 109.613 88.6993 108.345 88.1733C107.077 87.6472 105.994 86.7564 105.232 85.6135C104.469 84.4706 104.062 83.1269 104.062 81.7523C104.062 79.909 104.793 78.1413 106.094 76.8379C107.395 75.5345 109.16 74.8023 111 74.8023Z" fill="url(#paint5_linear)"/>
<path d="M111 126.927C113.744 126.927 116.427 126.112 118.709 124.585C120.99 123.058 122.769 120.887 123.819 118.347C124.869 115.807 125.144 113.012 124.608 110.316C124.073 107.619 122.752 105.143 120.811 103.199C118.871 101.255 116.398 99.9309 113.707 99.3945C111.015 98.8582 108.226 99.1335 105.69 100.186C103.155 101.238 100.988 103.019 99.4634 105.305C97.9388 107.591 97.125 110.278 97.125 113.027C97.125 116.714 98.5868 120.249 101.189 122.856C103.791 125.463 107.32 126.927 111 126.927ZM111 106.077C112.372 106.077 113.713 106.485 114.854 107.249C115.995 108.012 116.884 109.098 117.409 110.368C117.934 111.638 118.072 113.035 117.804 114.383C117.537 115.732 116.876 116.97 115.906 117.942C114.935 118.914 113.699 119.576 112.353 119.844C111.008 120.112 109.613 119.974 108.345 119.448C107.077 118.922 105.994 118.032 105.232 116.889C104.469 115.746 104.062 114.402 104.062 113.027C104.062 111.184 104.793 109.416 106.094 108.113C107.395 106.81 109.16 106.077 111 106.077Z" fill="url(#paint6_linear)"/>
<path d="M211.268 102.661L201.881 84.0525C201.676 83.6452 201.392 83.2824 201.046 82.9849C200.701 82.6874 200.3 82.461 199.867 82.3187C199.434 82.1764 198.977 82.1209 198.523 82.1555C198.069 82.19 197.626 82.3139 197.219 82.52L191.027 85.6475L184.784 73.2418L190.975 70.1143C191.382 69.9083 191.744 69.6241 192.041 69.2779C192.338 68.9317 192.564 68.5303 192.706 68.0966C192.848 67.6629 192.903 67.2054 192.869 66.7502C192.835 66.295 192.711 65.8512 192.505 65.4439L183.119 46.8353C182.913 46.4279 182.629 46.0651 182.284 45.7676C181.938 45.4702 181.538 45.2438 181.105 45.1015C180.672 44.9592 180.215 44.9037 179.761 44.9382C179.306 44.9728 178.863 45.0967 178.457 45.3028L172.265 48.4303L166.021 36.0245L172.213 32.897C172.62 32.6914 172.982 32.4074 173.28 32.0613C173.577 31.7153 173.803 31.3139 173.946 30.8801C174.088 30.4464 174.144 29.9888 174.109 29.5335C174.075 29.0782 173.952 28.6341 173.746 28.2266L164.36 9.61802C164.154 9.21066 163.87 8.84788 163.525 8.5504C163.179 8.25291 162.779 8.02654 162.346 7.88423C161.913 7.74192 161.456 7.68645 161.002 7.72099C160.547 7.75553 160.104 7.87941 159.698 8.08554L153.506 11.213L148.813 1.90699C148.607 1.49964 148.323 1.13686 147.978 0.83937C147.632 0.541882 147.232 0.315514 146.799 0.173203C146.366 0.0308911 145.909 -0.0245778 145.455 0.00996418C145 0.0445061 144.557 0.168382 144.151 0.374516L119.384 12.9123C118.977 13.118 118.614 13.402 118.317 13.748C118.02 14.0941 117.794 14.4955 117.651 14.9292C117.509 15.363 117.453 15.8206 117.487 16.2759C117.522 16.7312 117.645 17.1752 117.851 17.5827L177.305 135.437C177.51 135.845 177.794 136.208 178.139 136.506C178.485 136.804 178.885 137.031 179.318 137.173C179.751 137.316 180.208 137.372 180.663 137.337C181.117 137.303 181.56 137.179 181.967 136.973L206.734 124.432C207.141 124.226 207.503 123.942 207.801 123.596C208.098 123.25 208.324 122.849 208.467 122.415C208.609 121.981 208.665 121.524 208.63 121.068C208.596 120.613 208.473 120.169 208.267 119.762L203.546 110.466L209.734 107.338C210.142 107.133 210.505 106.849 210.803 106.502C211.101 106.155 211.328 105.753 211.47 105.319C211.613 104.884 211.668 104.426 211.633 103.97C211.599 103.514 211.474 103.069 211.268 102.661ZM178.477 53.0729L184.721 65.4786L181.627 67.0459L175.383 54.6401L178.477 53.0729ZM159.705 15.8556L165.948 28.2614L162.851 29.8286L156.607 17.4229L159.705 15.8556ZM181.905 129.207L125.569 17.5549L144.144 8.15157L200.494 119.803L181.905 129.207ZM194.156 91.8574L197.254 90.2901L203.498 102.696L200.4 104.263L194.156 91.8574Z" fill="url(#paint7_linear)"/>
<defs>
<linearGradient id="paint0_linear" x1="69.375" y1="57.4272" x2="69.375" y2="137.352" gradientUnits="userSpaceOnUse">
<stop stop-color="#E580FF"/>
<stop offset="1" stop-color="#B780FF"/>
</linearGradient>
<linearGradient id="paint1_linear" x1="27.75" y1="67.8523" x2="27.75" y2="95.6523" gradientUnits="userSpaceOnUse">
<stop stop-color="#E580FF"/>
<stop offset="1" stop-color="#B780FF"/>
</linearGradient>
<linearGradient id="paint2_linear" x1="27.75" y1="99.1274" x2="27.75" y2="126.927" gradientUnits="userSpaceOnUse">
<stop stop-color="#E580FF"/>
<stop offset="1" stop-color="#B780FF"/>
</linearGradient>
<linearGradient id="paint3_linear" x1="69.375" y1="67.8523" x2="69.375" y2="95.6523" gradientUnits="userSpaceOnUse">
<stop stop-color="#E580FF"/>
<stop offset="1" stop-color="#B780FF"/>
</linearGradient>
<linearGradient id="paint4_linear" x1="69.375" y1="99.1274" x2="69.375" y2="126.927" gradientUnits="userSpaceOnUse">
<stop stop-color="#E580FF"/>
<stop offset="1" stop-color="#B780FF"/>
</linearGradient>
<linearGradient id="paint5_linear" x1="111" y1="67.8523" x2="111" y2="95.6523" gradientUnits="userSpaceOnUse">
<stop stop-color="#E580FF"/>
<stop offset="1" stop-color="#B780FF"/>
</linearGradient>
<linearGradient id="paint6_linear" x1="111" y1="99.1274" x2="111" y2="126.927" gradientUnits="userSpaceOnUse">
<stop stop-color="#E580FF"/>
<stop offset="1" stop-color="#B780FF"/>
</linearGradient>
<linearGradient id="paint7_linear" x1="164.561" y1="0" x2="164.561" y2="137.347" gradientUnits="userSpaceOnUse">
<stop stop-color="#E580FF"/>
<stop offset="1" stop-color="#B780FF"/>
</linearGradient>
</defs>
</svg>
