<svg width="1280" height="720" viewBox="0 0 1280 720" fill="none" xmlns="http://www.w3.org/2000/svg">
<rect width="1280" height="720" fill="url(#paint0_linear)"/>
<rect width="1280" height="720" fill="black" fill-opacity="0.2"/>
<g clip-path="url(#clip0)">
<path d="M1033.08 436.704C1033.1 439.852 1031.85 442.877 1029.6 445.114C1027.35 447.351 1024.3 448.617 1021.1 448.633H494C492.419 448.625 490.854 448.31 489.396 447.706C487.938 447.102 486.615 446.222 485.503 445.114C484.39 444.006 483.51 442.694 482.912 441.251C482.315 439.808 482.011 438.263 482.02 436.705V81.9288C482.003 78.7815 483.256 75.7566 485.502 73.5196C487.749 71.2825 490.806 70.0165 494 70H1021.1C1022.68 70.0081 1024.25 70.3231 1025.71 70.9269C1027.16 71.5308 1028.49 72.4117 1029.6 73.5193C1030.71 74.627 1031.59 75.9397 1032.19 77.3825C1032.79 78.8254 1033.09 80.3701 1033.08 81.9284V81.9288V436.704Z" fill="url(#paint1_linear)"/>
<path d="M1033.08 436.704C1033.1 439.852 1031.85 442.877 1029.6 445.114C1027.35 447.351 1024.3 448.617 1021.1 448.633H494C492.419 448.625 490.854 448.31 489.396 447.706C487.938 447.102 486.615 446.222 485.503 445.114C484.39 444.006 483.51 442.694 482.912 441.251C482.315 439.808 482.011 438.263 482.02 436.705V81.9288C482.003 78.7815 483.256 75.7566 485.502 73.5196C487.749 71.2825 490.806 70.0165 494 70H1021.1C1022.68 70.0081 1024.25 70.3231 1025.71 70.9269C1027.16 71.5308 1028.49 72.4117 1029.6 73.5193C1030.71 74.627 1031.59 75.9397 1032.19 77.3825C1032.79 78.8254 1033.09 80.3701 1033.08 81.9284V81.9288V436.704Z" fill="black" fill-opacity="0.2"/>
<path d="M1026.87 430.895C1026.87 433.954 1025.63 436.888 1023.44 439.051C1021.24 441.214 1018.26 442.429 1015.16 442.429H500.304C497.2 442.429 494.222 441.214 492.027 439.051C489.832 436.888 488.599 433.954 488.599 430.895V87.9008C488.599 84.8418 489.832 81.908 492.027 79.7449C494.222 77.5818 497.2 76.3666 500.304 76.3666H1015.18C1018.28 76.3728 1021.25 77.5907 1023.45 79.7531C1025.64 81.9155 1026.87 84.8458 1026.87 87.9008V430.895Z" fill="#FFFAFF"/>
<path d="M516.116 92.4341H999.898C1001.74 92.4341 1003.51 93.1554 1004.81 94.4393C1006.11 95.7232 1006.85 97.4646 1006.85 99.2803V420.536C1006.85 422.352 1006.11 424.094 1004.81 425.377C1003.51 426.661 1001.74 427.383 999.898 427.383H516.116C514.273 427.383 512.506 426.661 511.203 425.377C509.9 424.094 509.168 422.352 509.168 420.536V99.2803C509.168 97.4646 509.9 95.7232 511.203 94.4393C512.506 93.1554 514.273 92.4341 516.116 92.4341Z" fill="url(#paint2_linear)"/>
<path d="M516.116 92.4341H999.898C1001.74 92.4341 1003.51 93.1554 1004.81 94.4393C1006.11 95.7232 1006.85 97.4646 1006.85 99.2803V420.536C1006.85 422.352 1006.11 424.094 1004.81 425.377C1003.51 426.661 1001.74 427.383 999.898 427.383H516.116C514.273 427.383 512.506 426.661 511.203 425.377C509.9 424.094 509.168 422.352 509.168 420.536V99.2803C509.168 97.4646 509.9 95.7232 511.203 94.4393C512.506 93.1554 514.273 92.4341 516.116 92.4341Z" fill="black" fill-opacity="0.2"/>
<path d="M522.239 98.9632H993.248C995.091 98.9632 996.858 99.6845 998.161 100.968C999.464 102.252 1000.2 103.994 1000.2 105.809V409.923C1000.2 411.739 999.464 413.48 998.161 414.764C996.858 416.048 995.091 416.769 993.248 416.769H522.239C520.397 416.769 518.629 416.048 517.326 414.764C516.023 413.48 515.291 411.739 515.291 409.923V105.809C515.291 103.994 516.023 102.252 517.326 100.968C518.629 99.6845 520.397 98.9632 522.239 98.9632Z" fill="#FFFAFF"/>
<path d="M854.804 310.225C852.95 310.223 851.117 309.839 849.424 309.095C849.03 308.923 848.654 308.712 848.302 308.467L814.071 284.724C812.335 283.52 810.918 281.923 809.94 280.066C808.962 278.209 808.451 276.148 808.451 274.056V241.676C808.451 239.584 808.962 237.523 809.94 235.666C810.918 233.81 812.335 232.212 814.071 231.008L848.302 207.265C848.654 207.02 849.029 206.809 849.423 206.637C851.44 205.754 853.648 205.381 855.848 205.552C858.048 205.724 860.169 206.434 862.02 207.619C863.87 208.804 865.391 210.425 866.443 212.336C867.496 214.247 868.047 216.387 868.047 218.561V297.171C868.047 300.632 866.652 303.951 864.168 306.398C861.685 308.846 858.316 310.221 854.804 310.221L854.804 310.225Z" fill="#3F3D56"/>
<path d="M778.195 316.591H682.723C663.245 316.575 647.46 304.169 647.44 288.86V226.873C647.46 211.564 663.245 199.157 682.723 199.142H778.444C797.783 199.16 813.455 211.477 813.478 226.677V288.86C813.458 304.169 797.673 316.575 778.195 316.591Z" fill="#3F3D56"/>
<path d="M948.262 397.213C963.944 397.213 976.657 384.687 976.657 369.235C976.657 353.783 963.944 341.256 948.262 341.256C932.581 341.256 919.868 353.783 919.868 369.235C919.868 384.687 932.581 397.213 948.262 397.213Z" fill="url(#paint3_linear)"/>
<path d="M948.262 397.213C963.944 397.213 976.657 384.687 976.657 369.235C976.657 353.783 963.944 341.256 948.262 341.256C932.581 341.256 919.868 353.783 919.868 369.235C919.868 384.687 932.581 397.213 948.262 397.213Z" fill="black" fill-opacity="0.2"/>
<path d="M963.01 368.733L940.377 355.857C940.288 355.806 940.186 355.78 940.083 355.78C939.98 355.78 939.879 355.806 939.789 355.857C939.7 355.908 939.626 355.981 939.574 356.069C939.523 356.157 939.496 356.257 939.496 356.359V382.111C939.496 382.212 939.523 382.312 939.574 382.4C939.626 382.488 939.7 382.562 939.789 382.612C939.879 382.663 939.98 382.69 940.083 382.69C940.186 382.69 940.288 382.663 940.377 382.612L963.01 369.736C963.1 369.686 963.174 369.612 963.225 369.524C963.277 369.436 963.304 369.336 963.304 369.235C963.304 369.133 963.277 369.033 963.225 368.945C963.174 368.857 963.1 368.784 963.01 368.733L940.377 355.857C940.288 355.806 940.186 355.78 940.083 355.78C939.98 355.78 939.879 355.806 939.789 355.857C939.7 355.908 939.626 355.981 939.574 356.069C939.523 356.157 939.496 356.257 939.496 356.359V382.111C939.496 382.212 939.523 382.312 939.574 382.4C939.626 382.488 939.7 382.562 939.789 382.612C939.879 382.663 939.98 382.69 940.083 382.69C940.186 382.69 940.288 382.663 940.377 382.612L963.01 369.736C963.1 369.686 963.174 369.612 963.225 369.524C963.277 369.436 963.304 369.336 963.304 369.235C963.304 369.133 963.277 369.033 963.225 368.945C963.174 368.857 963.1 368.784 963.01 368.733Z" fill="white"/>
<path d="M911.396 480.428C911.412 483.575 910.16 486.6 907.913 488.837C905.666 491.074 902.61 492.34 899.416 492.356H372.313C370.731 492.348 369.167 492.033 367.709 491.43C366.251 490.826 364.928 489.945 363.815 488.837C362.703 487.729 361.823 486.417 361.225 484.974C360.627 483.531 360.324 481.986 360.332 480.428V125.652C360.316 122.505 361.568 119.48 363.815 117.243C366.062 115.006 369.118 113.74 372.312 113.723H899.415C900.997 113.731 902.561 114.046 904.019 114.65C905.477 115.254 906.8 116.135 907.913 117.243C909.025 118.35 909.905 119.663 910.503 121.106C911.101 122.549 911.404 124.093 911.396 125.652V125.652V480.428Z" fill="url(#paint4_linear)"/>
<path d="M911.396 480.428C911.412 483.575 910.16 486.6 907.913 488.837C905.666 491.074 902.61 492.34 899.416 492.356H372.313C370.731 492.348 369.167 492.033 367.709 491.43C366.251 490.826 364.928 489.945 363.815 488.837C362.703 487.729 361.823 486.417 361.225 484.974C360.627 483.531 360.324 481.986 360.332 480.428V125.652C360.316 122.505 361.568 119.48 363.815 117.243C366.062 115.006 369.118 113.74 372.312 113.723H899.415C900.997 113.731 902.561 114.046 904.019 114.65C905.477 115.254 906.8 116.135 907.913 117.243C909.025 118.35 909.905 119.663 910.503 121.106C911.101 122.549 911.404 124.093 911.396 125.652V125.652V480.428Z" fill="black" fill-opacity="0.2"/>
<path d="M905.178 473.442C905.178 476.501 903.945 479.435 901.749 481.598C899.554 483.761 896.577 484.976 893.472 484.976H378.617C375.512 484.976 372.535 483.761 370.34 481.598C368.145 479.435 366.911 476.501 366.911 473.442V130.448C366.911 127.389 368.145 124.455 370.34 122.292C372.535 120.129 375.512 118.914 378.617 118.914H893.496C896.596 118.92 899.568 120.138 901.758 122.301C903.948 124.463 905.178 127.393 905.178 130.448V473.442Z" fill="#FFFAFF"/>
<path d="M394.428 134.982H878.21C880.053 134.982 881.82 135.703 883.123 136.987C884.426 138.271 885.158 140.012 885.158 141.828V463.084C885.158 464.9 884.426 466.641 883.123 467.925C881.82 469.209 880.053 469.93 878.21 469.93H394.428C392.586 469.93 390.818 469.209 389.515 467.925C388.212 466.641 387.48 464.9 387.48 463.084V141.828C387.48 140.012 388.212 138.271 389.515 136.987C390.818 135.703 392.586 134.982 394.428 134.982Z" fill="url(#paint5_linear)"/>
<path d="M394.428 134.982H878.21C880.053 134.982 881.82 135.703 883.123 136.987C884.426 138.271 885.158 140.012 885.158 141.828V463.084C885.158 464.9 884.426 466.641 883.123 467.925C881.82 469.209 880.053 469.93 878.21 469.93H394.428C392.586 469.93 390.818 469.209 389.515 467.925C388.212 466.641 387.48 464.9 387.48 463.084V141.828C387.48 140.012 388.212 138.271 389.515 136.987C390.818 135.703 392.586 134.982 394.428 134.982Z" fill="black" fill-opacity="0.2"/>
<path d="M400.552 141.511H871.561C873.403 141.511 875.171 142.232 876.474 143.516C877.777 144.8 878.509 146.541 878.509 148.357V452.47C878.509 454.286 877.777 456.027 876.474 457.311C875.171 458.595 873.403 459.316 871.561 459.316H400.552C398.709 459.316 396.942 458.595 395.639 457.311C394.336 456.027 393.604 454.286 393.604 452.47V148.357C393.604 146.541 394.336 144.8 395.639 143.516C396.942 142.232 398.709 141.511 400.552 141.511Z" fill="#FFFAFF"/>
<path d="M733.116 352.772C731.263 352.771 729.43 352.386 727.736 351.643C727.342 351.47 726.966 351.26 726.615 351.015L692.384 327.272C690.648 326.068 689.231 324.47 688.253 322.613C687.275 320.757 686.764 318.695 686.763 316.604V284.223C686.764 282.132 687.274 280.07 688.253 278.214C689.231 276.357 690.648 274.759 692.384 273.555L726.615 249.813C726.966 249.567 727.342 249.357 727.736 249.184C729.752 248.301 731.961 247.928 734.161 248.1C736.361 248.271 738.482 248.982 740.332 250.166C742.183 251.351 743.703 252.973 744.756 254.884C745.809 256.795 746.36 258.934 746.36 261.109V339.718C746.36 343.179 744.965 346.499 742.481 348.946C739.997 351.393 736.629 352.768 733.116 352.768L733.116 352.772Z" fill="#3F3D56"/>
<path d="M656.508 359.138H561.036C541.558 359.122 525.773 346.716 525.753 331.407V269.42C525.773 254.111 541.558 241.705 561.036 241.689H656.757C676.096 241.707 691.768 254.024 691.791 269.224V331.407C691.771 346.716 675.986 359.122 656.508 359.138Z" fill="#3F3D56"/>
<path d="M826.575 439.761C842.257 439.761 854.969 427.234 854.969 411.782C854.969 396.33 842.257 383.804 826.575 383.804C810.893 383.804 798.181 396.33 798.181 411.782C798.181 427.234 810.893 439.761 826.575 439.761Z" fill="url(#paint6_linear)"/>
<path d="M826.575 439.761C842.257 439.761 854.969 427.234 854.969 411.782C854.969 396.33 842.257 383.804 826.575 383.804C810.893 383.804 798.181 396.33 798.181 411.782C798.181 427.234 810.893 439.761 826.575 439.761Z" fill="black" fill-opacity="0.2"/>
<path d="M841.323 411.281L818.69 398.405C818.6 398.354 818.499 398.327 818.396 398.327C818.293 398.327 818.191 398.354 818.102 398.405C818.013 398.456 817.938 398.529 817.887 398.617C817.835 398.705 817.808 398.805 817.808 398.906V424.658C817.808 424.76 817.835 424.86 817.887 424.948C817.938 425.036 818.013 425.109 818.102 425.16C818.191 425.211 818.293 425.237 818.396 425.237C818.499 425.237 818.6 425.211 818.69 425.16L841.323 412.284C841.412 412.233 841.487 412.16 841.538 412.072C841.59 411.984 841.617 411.884 841.617 411.782C841.617 411.681 841.59 411.581 841.538 411.493C841.487 411.405 841.412 411.332 841.323 411.281L818.69 398.405C818.6 398.354 818.499 398.327 818.396 398.327C818.293 398.327 818.191 398.354 818.102 398.405C818.013 398.456 817.938 398.529 817.887 398.617C817.835 398.705 817.808 398.805 817.808 398.906V424.658C817.808 424.76 817.835 424.86 817.887 424.948C817.938 425.036 818.013 425.109 818.102 425.16C818.191 425.211 818.293 425.237 818.396 425.237C818.499 425.237 818.6 425.211 818.69 425.16L841.323 412.284C841.412 412.233 841.487 412.16 841.538 412.072C841.59 411.984 841.617 411.884 841.617 411.782C841.617 411.681 841.59 411.581 841.538 411.493C841.487 411.405 841.412 411.332 841.323 411.281Z" fill="white"/>
<path d="M792.063 529.164C792.08 532.311 790.827 535.336 788.581 537.573C786.334 539.81 783.277 541.076 780.083 541.092H252.98C251.399 541.084 249.835 540.769 248.377 540.166C246.919 539.562 245.596 538.681 244.483 537.573C243.371 536.466 242.491 535.153 241.893 533.71C241.295 532.267 240.992 530.722 241 529.164V174.388C240.983 171.241 242.236 168.216 244.483 165.979C246.73 163.742 249.786 162.476 252.98 162.459H780.083C781.665 162.467 783.229 162.782 784.687 163.386C786.145 163.99 787.468 164.871 788.58 165.979C789.693 167.086 790.573 168.399 791.171 169.842C791.768 171.285 792.072 172.829 792.063 174.388V174.388V529.164Z" fill="url(#paint7_linear)"/>
<path d="M792.063 529.164C792.08 532.311 790.827 535.336 788.581 537.573C786.334 539.81 783.277 541.076 780.083 541.092H252.98C251.399 541.084 249.835 540.769 248.377 540.166C246.919 539.562 245.596 538.681 244.483 537.573C243.371 536.466 242.491 535.153 241.893 533.71C241.295 532.267 240.992 530.722 241 529.164V174.388C240.983 171.241 242.236 168.216 244.483 165.979C246.73 163.742 249.786 162.476 252.98 162.459H780.083C781.665 162.467 783.229 162.782 784.687 163.386C786.145 163.99 787.468 164.871 788.58 165.979C789.693 167.086 790.573 168.399 791.171 169.842C791.768 171.285 792.072 172.829 792.063 174.388V174.388V529.164Z" fill="black" fill-opacity="0.2"/>
<path d="M785.846 522.178C785.846 525.237 784.612 528.171 782.417 530.334C780.222 532.497 777.245 533.712 774.14 533.712H259.285C256.18 533.712 253.203 532.497 251.008 530.334C248.812 528.171 247.579 525.237 247.579 522.178V179.184C247.579 176.125 248.812 173.192 251.008 171.028C253.203 168.865 256.18 167.65 259.285 167.65H774.164C777.264 167.656 780.235 168.874 782.426 171.037C784.616 173.199 785.846 176.129 785.846 179.184V522.178Z" fill="#FFFAFF"/>
<path d="M275.096 183.718H758.878C760.721 183.718 762.488 184.439 763.791 185.723C765.094 187.007 765.826 188.748 765.826 190.564V511.82C765.826 513.636 765.094 515.377 763.791 516.661C762.488 517.945 760.721 518.666 758.878 518.666H275.096C273.253 518.666 271.486 517.945 270.183 516.661C268.88 515.377 268.148 513.636 268.148 511.82V190.564C268.148 188.748 268.88 187.007 270.183 185.723C271.486 184.439 273.253 183.718 275.096 183.718Z" fill="url(#paint8_linear)"/>
<path d="M275.096 183.718H758.878C760.721 183.718 762.488 184.439 763.791 185.723C765.094 187.007 765.826 188.748 765.826 190.564V511.82C765.826 513.636 765.094 515.377 763.791 516.661C762.488 517.945 760.721 518.666 758.878 518.666H275.096C273.253 518.666 271.486 517.945 270.183 516.661C268.88 515.377 268.148 513.636 268.148 511.82V190.564C268.148 188.748 268.88 187.007 270.183 185.723C271.486 184.439 273.253 183.718 275.096 183.718Z" fill="black" fill-opacity="0.2"/>
<path d="M281.22 190.247H752.229C753.141 190.247 754.044 190.424 754.887 190.768C755.73 191.112 756.496 191.616 757.141 192.252C757.787 192.888 758.298 193.642 758.648 194.473C758.997 195.304 759.176 196.194 759.176 197.093V501.206C759.176 502.105 758.997 502.996 758.648 503.826C758.298 504.657 757.787 505.412 757.141 506.047C756.496 506.683 755.73 507.187 754.887 507.531C754.044 507.875 753.141 508.053 752.229 508.053H281.22C279.377 508.053 277.61 507.331 276.307 506.047C275.004 504.763 274.272 503.022 274.272 501.206V197.093C274.272 195.277 275.004 193.536 276.307 192.252C277.61 190.968 279.377 190.247 281.22 190.247Z" fill="#FFFAFF"/>
<path d="M613.784 401.508C611.93 401.507 610.097 401.122 608.404 400.379C608.01 400.206 607.634 399.996 607.282 399.751L573.051 376.008C571.315 374.804 569.899 373.206 568.921 371.349C567.942 369.493 567.432 367.432 567.431 365.34V332.96C567.432 330.868 567.942 328.806 568.92 326.95C569.899 325.093 571.315 323.495 573.051 322.291L607.282 298.549C607.634 298.303 608.01 298.093 608.404 297.921C610.42 297.037 612.629 296.664 614.829 296.836C617.028 297.007 619.15 297.718 621 298.902C622.851 300.087 624.371 301.709 625.424 303.62C626.476 305.531 627.028 307.671 627.028 309.845V388.454C627.028 391.915 625.633 395.235 623.149 397.682C620.665 400.129 617.297 401.504 613.784 401.504L613.784 401.508Z" fill="url(#paint9_linear)"/>
<path d="M537.175 407.874H441.704C422.226 407.858 406.44 395.452 406.42 380.143V318.156C406.44 302.847 422.226 290.441 441.704 290.425H537.424C556.764 290.443 572.436 302.76 572.458 317.96V380.143C572.438 395.452 556.653 407.858 537.175 407.874Z" fill="url(#paint10_linear)"/>
<path d="M707.243 488.497C722.925 488.497 735.637 475.971 735.637 460.518C735.637 445.066 722.925 432.54 707.243 432.54C691.561 432.54 678.849 445.066 678.849 460.518C678.849 475.971 691.561 488.497 707.243 488.497Z" fill="url(#paint11_linear)"/>
<path d="M707.243 488.497C722.925 488.497 735.637 475.971 735.637 460.518C735.637 445.066 722.925 432.54 707.243 432.54C691.561 432.54 678.849 445.066 678.849 460.518C678.849 475.971 691.561 488.497 707.243 488.497Z" fill="black" fill-opacity="0.2"/>
<path d="M721.991 460.017L699.358 447.141C699.268 447.09 699.167 447.063 699.064 447.063C698.961 447.063 698.859 447.09 698.77 447.141C698.681 447.192 698.606 447.265 698.555 447.353C698.503 447.441 698.476 447.541 698.476 447.642V473.394C698.476 473.496 698.503 473.596 698.555 473.684C698.606 473.772 698.681 473.845 698.77 473.896C698.859 473.947 698.961 473.973 699.064 473.973C699.167 473.973 699.268 473.947 699.358 473.896L721.991 461.02C722.08 460.969 722.154 460.896 722.206 460.808C722.257 460.72 722.285 460.62 722.285 460.518C722.285 460.417 722.257 460.317 722.206 460.229C722.154 460.141 722.08 460.068 721.991 460.017L699.358 447.141C699.268 447.09 699.167 447.063 699.064 447.063C698.961 447.063 698.859 447.09 698.77 447.141C698.681 447.192 698.606 447.265 698.555 447.353C698.503 447.441 698.476 447.541 698.476 447.642V473.394C698.476 473.496 698.503 473.596 698.555 473.684C698.606 473.772 698.681 473.845 698.77 473.896C698.859 473.947 698.961 473.974 699.064 473.974C699.167 473.974 699.268 473.947 699.358 473.896L721.991 461.02C722.08 460.969 722.154 460.896 722.206 460.808C722.257 460.72 722.285 460.62 722.285 460.518C722.285 460.417 722.257 460.317 722.206 460.229C722.154 460.141 722.08 460.068 721.991 460.017Z" fill="white"/>
</g>
<path d="M427.759 647H433.759L448.159 612.6H442.509L430.809 642L419.159 612.6H413.459L427.759 647ZM452.108 620.5V647H456.808V620.5H452.108ZM454.508 616.8C456.558 616.8 457.858 615.7 457.858 614.05C457.858 612.35 456.558 611.25 454.508 611.25C452.458 611.25 451.108 612.35 451.108 614.05C451.108 615.7 452.458 616.8 454.508 616.8ZM477.271 624.2C479.371 624.2 480.971 624.6 482.321 625.05V641.15C480.871 642.15 478.421 643.3 475.621 643.3C470.721 643.3 467.521 640 467.521 634.15C467.521 627.35 471.771 624.2 477.271 624.2ZM482.621 647H487.021V611.85L482.321 612.6V620.65C480.821 620.3 479.171 620 477.021 620C469.471 620 462.721 624.7 462.721 634.45C462.721 643.25 468.171 647.5 474.371 647.5C478.071 647.5 480.871 646.1 482.621 644.65V647ZM516.15 645.15V641C514.2 642.1 510.55 643.05 507 643.05C501.45 643.05 497.85 640.5 497.5 635.2H516.7V633C516.7 624.75 512.55 619.95 505.3 619.95C497.9 619.95 492.75 625.1 492.75 633.75C492.75 642.75 498.45 647.5 506.55 647.5C510.2 647.5 514.25 646.55 516.15 645.15ZM505.05 624C509.7 624 512 627 512.1 632H497.45C497.7 626.95 500.65 624 505.05 624ZM535.162 647.5C527.212 647.5 521.412 641.55 521.412 633.75C521.412 625.85 527.212 620 535.162 620C543.112 620 548.912 625.85 548.912 633.75C548.912 641.55 543.112 647.5 535.162 647.5ZM535.162 643.1C540.412 643.1 544.262 639.15 544.262 633.75C544.262 628.3 540.412 624.4 535.162 624.4C529.962 624.4 526.062 628.3 526.062 633.75C526.062 639.1 529.962 643.1 535.162 643.1ZM585.751 622C583.751 620.65 580.901 619.95 577.851 619.95C569.751 619.95 563.551 625.45 563.551 633.75C563.551 641.8 569.701 647.5 577.801 647.5C580.901 647.5 583.751 646.75 585.751 645.4V640.7C583.751 642.15 580.951 643.05 577.951 643.05C572.351 643.05 568.251 639.35 568.251 633.75C568.251 628 572.351 624.4 578.001 624.4C580.951 624.4 583.751 625.25 585.751 626.7V622ZM603.766 647.5C595.816 647.5 590.016 641.55 590.016 633.75C590.016 625.85 595.816 620 603.766 620C611.716 620 617.516 625.85 617.516 633.75C617.516 641.55 611.716 647.5 603.766 647.5ZM603.766 643.1C609.016 643.1 612.866 639.15 612.866 633.75C612.866 628.3 609.016 624.4 603.766 624.4C598.566 624.4 594.666 628.3 594.666 633.75C594.666 639.1 598.566 643.1 603.766 643.1ZM635.398 624.5C638.948 624.5 641.148 626.65 641.148 630.85V647H645.848V629.55C645.848 628.65 645.798 627.75 645.648 626.95C647.548 625.8 650.348 624.5 653.298 624.5C656.898 624.5 659.098 626.65 659.098 630.85V647H663.748V629.8C663.748 623.45 660.598 620 655.098 620C650.498 620 647.098 622.25 644.798 624.3C643.448 621.5 640.848 620 637.148 620C632.998 620 629.798 622 627.648 623.85V620.5H623.248V647H627.948V626.95C629.748 625.85 632.498 624.5 635.398 624.5ZM670.663 620.5V647H675.363V620.5H670.663ZM673.063 616.8C675.113 616.8 676.413 615.7 676.413 614.05C676.413 612.35 675.113 611.25 673.063 611.25C671.013 611.25 669.663 612.35 669.663 614.05C669.663 615.7 671.013 616.8 673.063 616.8ZM695.175 624.5C699.075 624.5 701.425 626.7 701.425 631.05V647H706.125V630C706.125 623.5 702.775 620 696.925 620C692.575 620 689.175 622 686.925 623.85V620.5H682.525V647H687.225V626.9C689.075 625.8 692.075 624.5 695.175 624.5ZM724.145 640.85C719.695 640.85 716.495 638.3 716.495 633.1C716.495 627.3 720.345 624.2 725.695 624.2C727.945 624.2 729.645 624.65 731.095 625.2V638.55C729.545 639.65 727.045 640.85 724.145 640.85ZM735.795 642.85V622.2C733.345 621.2 730.095 620 725.745 620C718.145 620 711.695 624.6 711.695 633.65C711.695 640.85 716.345 645.1 722.995 645.1C726.595 645.1 729.345 643.65 731.095 642.3V643.45C731.095 648.3 728.245 651 722.795 651C718.845 651 715.545 649.5 713.145 647.85V652.65C715.345 654 718.945 655.4 723.245 655.4C730.145 655.4 735.795 651.8 735.795 642.85ZM764.737 632.65L761.487 631.7C758.087 630.7 755.887 629.9 755.887 627.5C755.887 625.25 758.137 624.15 760.937 624.15C764.687 624.15 768.737 625.65 770.637 627.1V622.4C768.787 621.15 764.987 619.95 761.187 619.95C755.037 619.95 751.337 623.25 751.337 627.65C751.337 632.25 754.687 634.2 758.637 635.2L761.987 636.2C765.387 637.1 767.387 637.85 767.387 640.15C767.387 642.65 765.437 643.55 762.287 643.55C758.187 643.55 754.037 641.95 751.587 640.4V645C753.587 646.25 757.837 647.7 762.087 647.7C768.037 647.7 771.837 645.05 771.837 640.05C771.837 635.95 768.987 633.85 764.737 632.65ZM789.557 647.5C781.607 647.5 775.807 641.55 775.807 633.75C775.807 625.85 781.607 620 789.557 620C797.507 620 803.307 625.85 803.307 633.75C803.307 641.55 797.507 647.5 789.557 647.5ZM789.557 643.1C794.807 643.1 798.657 639.15 798.657 633.75C798.657 628.3 794.807 624.4 789.557 624.4C784.357 624.4 780.457 628.3 780.457 633.75C780.457 639.1 784.357 643.1 789.557 643.1ZM821.539 647.5C813.589 647.5 807.789 641.55 807.789 633.75C807.789 625.85 813.589 620 821.539 620C829.489 620 835.289 625.85 835.289 633.75C835.289 641.55 829.489 647.5 821.539 647.5ZM821.539 643.1C826.789 643.1 830.639 639.15 830.639 633.75C830.639 628.3 826.789 624.4 821.539 624.4C816.339 624.4 812.439 628.3 812.439 633.75C812.439 639.1 816.339 643.1 821.539 643.1ZM853.671 624.5C857.571 624.5 859.921 626.7 859.921 631.05V647H864.621V630C864.621 623.5 861.271 620 855.421 620C851.071 620 847.671 622 845.421 623.85V620.5H841.021V647H845.721V626.9C847.571 625.8 850.571 624.5 853.671 624.5Z" fill="#FFFAFF"/>
<defs>
<linearGradient id="paint0_linear" x1="171.555" y1="170.502" x2="179.379" y2="842.041" gradientUnits="userSpaceOnUse">
<stop stop-color="#390048"/>
<stop offset="1"/>
</linearGradient>
<linearGradient id="paint1_linear" x1="555.877" y1="159.664" x2="560.902" y2="512.789" gradientUnits="userSpaceOnUse">
<stop stop-color="#390048"/>
<stop offset="1"/>
</linearGradient>
<linearGradient id="paint2_linear" x1="575.87" y1="171.753" x2="580.225" y2="484.139" gradientUnits="userSpaceOnUse">
<stop stop-color="#390048"/>
<stop offset="1"/>
</linearGradient>
<linearGradient id="paint3_linear" x1="927.479" y1="354.507" x2="928.544" y2="406.684" gradientUnits="userSpaceOnUse">
<stop stop-color="#390048"/>
<stop offset="1"/>
</linearGradient>
<linearGradient id="paint4_linear" x1="434.19" y1="203.387" x2="439.215" y2="556.512" gradientUnits="userSpaceOnUse">
<stop stop-color="#390048"/>
<stop offset="1"/>
</linearGradient>
<linearGradient id="paint5_linear" x1="454.183" y1="214.3" x2="458.537" y2="526.686" gradientUnits="userSpaceOnUse">
<stop stop-color="#390048"/>
<stop offset="1"/>
</linearGradient>
<linearGradient id="paint6_linear" x1="805.792" y1="397.055" x2="806.857" y2="449.231" gradientUnits="userSpaceOnUse">
<stop stop-color="#390048"/>
<stop offset="1"/>
</linearGradient>
<linearGradient id="paint7_linear" x1="314.858" y1="252.123" x2="319.883" y2="605.248" gradientUnits="userSpaceOnUse">
<stop stop-color="#390048"/>
<stop offset="1"/>
</linearGradient>
<linearGradient id="paint8_linear" x1="334.851" y1="263.036" x2="339.205" y2="575.422" gradientUnits="userSpaceOnUse">
<stop stop-color="#390048"/>
<stop offset="1"/>
</linearGradient>
<linearGradient id="paint9_linear" x1="597.229" y1="296.795" x2="597.229" y2="401.508" gradientUnits="userSpaceOnUse">
<stop stop-color="#E580FF"/>
<stop offset="1" stop-color="#B780FF"/>
</linearGradient>
<linearGradient id="paint10_linear" x1="489.439" y1="290.425" x2="489.439" y2="407.874" gradientUnits="userSpaceOnUse">
<stop stop-color="#E580FF"/>
<stop offset="1" stop-color="#B780FF"/>
</linearGradient>
<linearGradient id="paint11_linear" x1="686.46" y1="445.791" x2="687.525" y2="497.967" gradientUnits="userSpaceOnUse">
<stop stop-color="#390048"/>
<stop offset="1"/>
</linearGradient>
<clipPath id="clip0">
<rect width="792.083" height="469.917" fill="white" transform="translate(241 70)"/>
</clipPath>
</defs>
</svg>
