<?xml version="1.0" encoding="utf-8"?>
<svg viewBox="0 0 500 500" xmlns="http://www.w3.org/2000/svg">
  <defs>
    <clipPath id="cD" clipPathUnits="userSpaceOnUse">
      <path d="M0 1024.286h1440.429V0H0Z"/>
    </clipPath>
  </defs>
  <g transform="matrix(3.144277, 0, 0, -3.144277, -2019.120972, 573.618408)">
    <title>ipfs</title>
    <g clip-path="url(#cD)">
      <path style="fill:#3d8f96;fill-opacity:1;fill-rule:nonzero;stroke:none" d="M0 0v66.781l-57.749 33.404V33.392Z" transform="translate(721.667 36.135)"/>
      <path style="fill:#5bb4be;fill-opacity:1;fill-rule:nonzero;stroke:none" d="M0 0v-47.277c3.382-1.949 6.116-6.701 6.116-10.599l40.863-23.632v47.264c-3.382 1.949-6.116 6.701-6.116 10.612z" transform="translate(669.31 126.982)"/>
      <path style="fill:#469ea2;fill-opacity:1;fill-rule:nonzero;stroke:none" d="m0 0 57.749 33.391L115.498 0 57.749-33.403Z" transform="translate(663.918 136.32)"/>
      <path style="fill:#6acad1;fill-opacity:1;fill-rule:nonzero;stroke:none" d="m0 0-40.864-23.633c-3.382 1.95-8.85 1.963-12.219 0L-93.947 0l40.864 23.632c3.381-1.949 8.849-1.949 12.23 0z" transform="translate(768.647 136.32)"/>
      <path style="fill:#42999e;fill-opacity:1;fill-rule:nonzero;stroke:none" d="m0 0-57.749-33.403v-66.782L0-66.793Z" transform="translate(779.416 136.32)"/>
      <path style="fill:#42999e;fill-opacity:1;fill-rule:nonzero;stroke:none" d="M0 0v66.781l57.749 33.404V33.392Z" transform="translate(721.667 36.135)"/>
      <path style="fill:#65c3ca;fill-opacity:1;fill-rule:nonzero;stroke:none" d="M0 0v-47.277c-3.382-1.949-6.116-6.701-6.116-10.599l-40.863-23.632v47.264c3.381 1.949 6.116 6.701 6.116 10.612z" transform="translate(774.025 126.982)"/>
      <path style="fill:#fff;fill-opacity:1;fill-rule:nonzero;stroke:none" d="m0 0 12.65-7.313 2.492 1.453L2.504 1.452Z" transform="translate(694.903 130.002)"/>
      <path style="fill:#fff;fill-opacity:1;fill-rule:nonzero;stroke:none" d="m0 0-2.671-1.554-4.03 2.332 2.671 1.554c1.538.893 3.127 1.134 4.576.293C1.933 1.835 1.512.88 0 0m3.191 4.166C.254 5.86-3.229 5.529-6.18 3.81L-11.533.701 1.105-6.611l2.48 1.439-3.891 2.255 2.861 1.669C5.518.46 6.013 2.523 3.191 4.166" transform="translate(711.521 132.268)"/>
      <path style="fill:#fff;fill-opacity:1;fill-rule:nonzero;stroke:none" d="m0 0-6.013-3.49-3.078 1.771 6.929 4.038-2.352 1.35-9.396-5.465L-1.271-9.12l2.479 1.452-4.87 2.814L2.339-1.35z" transform="translate(726.015 141.81)"/>
      <path style="fill:#fff;fill-opacity:1;fill-rule:nonzero;stroke:none" d="M0 0c-2.492 1.439-4.984.776-7.565-.026l-1.743-.561c-1.729-.56-2.923-.917-3.827-.394-.775.445-.534 1.133.739 1.872 1.638.955 4.233 1.63 6.063 1.847l-2.682 1.555a15.811 15.811 0 0 1-5.721-1.975c-2.569-1.491-3.357-3.516-.877-4.956 2.427-1.401 4.996-.777 7.513.065l2.047.674c1.691.536 2.772.828 3.661.319.751-.434.637-1.02-.876-1.912-1.692-.98-4.577-1.783-6.636-1.987l2.592-1.503c1.539.178 4.069.816 6.231 2.077C1.665-3.313 2.39-1.39 0 0" transform="translate(741.896 146.742)"/>
    </g>
  </g>
</svg>